<svg width="250" height="250" viewBox="0 0 250 250" fill="none" xmlns="http://www.w3.org/2000/svg">
<circle cx="125" cy="125" r="125" fill="black"/>
<circle cx="125" cy="125" r="124.5" stroke="white" stroke-opacity="0.39"/>
<mask id="path-3-inside-1_15_4" fill="white">
<path d="M140.365 112.485C145.817 110.074 150.43 106.098 153.619 101.061C156.807 96.0245 158.427 90.1539 158.272 84.1948C158.309 63.1199 148.017 50 127.852 50H80V151.7H92.0337V62.0443H126.942C129.301 62.0443 145.578 62.22 145.578 84.1948C145.578 94.6204 139.481 102.256 126.644 106.478V118.512C126.644 118.512 158.991 125.29 158.991 156.807C158.991 201.001 119.274 201.789 101.879 192.333C101.586 192.157 100.34 191.476 100.377 191.502C100.326 191.482 100.276 191.459 100.228 191.433C100.095 191.38 99.9993 191.433 100.228 191.609C100.457 191.784 101.086 192.333 101.405 192.615C115.569 204.542 171.514 207.689 171.514 157.398C171.549 147.621 168.58 138.069 163.008 130.035C157.435 122.001 149.53 115.872 140.36 112.479"/>
</mask>
<path d="M140.365 112.485C145.817 110.074 150.43 106.098 153.619 101.061C156.807 96.0245 158.427 90.1539 158.272 84.1948C158.309 63.1199 148.017 50 127.852 50H80V151.7H92.0337V62.0443H126.942C129.301 62.0443 145.578 62.22 145.578 84.1948C145.578 94.6204 139.481 102.256 126.644 106.478V118.512C126.644 118.512 158.991 125.29 158.991 156.807C158.991 201.001 119.274 201.789 101.879 192.333C101.586 192.157 100.34 191.476 100.377 191.502C100.326 191.482 100.276 191.459 100.228 191.433C100.095 191.38 99.9993 191.433 100.228 191.609C100.457 191.784 101.086 192.333 101.405 192.615C115.569 204.542 171.514 207.689 171.514 157.398C171.549 147.621 168.58 138.069 163.008 130.035C157.435 122.001 149.53 115.872 140.36 112.479" fill="white"/>
<path d="M158.272 84.1948L157.272 84.193L157.272 84.2069L157.272 84.2207L158.272 84.1948ZM80 50V49H79V50H80ZM80 151.7H79V152.7H80V151.7ZM92.0337 151.7V152.7H93.0337V151.7H92.0337ZM92.0337 62.0443V61.0443H91.0337V62.0443H92.0337ZM126.644 106.478L126.331 105.528L125.644 105.755V106.478H126.644ZM126.644 118.512H125.644V119.324L126.439 119.491L126.644 118.512ZM101.879 192.333L101.364 193.19L101.383 193.201L101.401 193.211L101.879 192.333ZM100.377 191.502L100.014 192.434L100.959 190.688L100.377 191.502ZM100.228 191.433L100.706 190.554L100.654 190.526L100.6 190.504L100.228 191.433ZM101.405 192.615L100.743 193.364L100.752 193.372L100.761 193.38L101.405 192.615ZM171.514 157.398L170.514 157.394V157.398H171.514ZM140.77 113.399C146.403 110.909 151.169 106.801 154.464 101.596L152.774 100.527C149.691 105.396 145.232 109.24 139.961 111.57L140.77 113.399ZM154.464 101.596C157.758 96.3919 159.431 90.3261 159.272 84.1689L157.272 84.2207C157.422 89.9817 155.856 95.6572 152.774 100.527L154.464 101.596ZM159.272 84.1966C159.291 73.5101 156.692 64.6971 151.396 58.5421C146.08 52.3637 138.164 49 127.852 49V51C137.706 51 145.018 54.1963 149.88 59.8465C154.762 65.5202 157.29 73.8045 157.272 84.193L159.272 84.1966ZM127.852 49H80V51H127.852V49ZM79 50V151.7H81V50H79ZM80 152.7H92.0337V150.7H80V152.7ZM93.0337 151.7V62.0443H91.0337V151.7H93.0337ZM92.0337 63.0443H126.942V61.0443H92.0337V63.0443ZM126.942 63.0443C128.08 63.0443 132.494 63.0921 136.606 65.7215C140.64 68.3009 144.578 73.4939 144.578 84.1948H146.578C146.578 72.9209 142.378 67.0387 137.683 64.0365C133.067 61.0844 128.163 61.0443 126.942 61.0443V63.0443ZM144.578 84.1948C144.578 89.1984 143.121 93.4797 140.158 97.0211C137.183 100.577 132.631 103.456 126.331 105.528L126.956 107.428C133.494 105.278 138.409 102.228 141.692 98.3045C144.987 94.3661 146.578 89.6168 146.578 84.1948H144.578ZM125.644 106.478V118.512H127.644V106.478H125.644ZM126.644 118.512C126.439 119.491 126.438 119.491 126.438 119.491C126.438 119.491 126.438 119.491 126.438 119.491C126.439 119.491 126.44 119.491 126.441 119.491C126.444 119.492 126.448 119.493 126.455 119.494C126.468 119.497 126.489 119.502 126.517 119.508C126.573 119.521 126.659 119.54 126.772 119.568C126.998 119.623 127.334 119.708 127.765 119.828C128.626 120.068 129.863 120.448 131.349 121.001C134.326 122.108 138.289 123.905 142.246 126.661C150.14 132.161 157.991 141.458 157.991 156.807H159.991C159.991 140.639 151.668 130.789 143.389 125.02C139.259 122.143 135.135 120.275 132.047 119.126C130.501 118.551 129.21 118.155 128.303 117.902C127.848 117.775 127.49 117.684 127.242 117.624C127.119 117.594 127.023 117.572 126.956 117.557C126.923 117.549 126.898 117.544 126.88 117.54C126.871 117.538 126.863 117.536 126.858 117.535C126.856 117.535 126.854 117.534 126.852 117.534C126.851 117.534 126.851 117.534 126.85 117.534C126.849 117.533 126.849 117.533 126.644 118.512ZM157.991 156.807C157.991 167.705 155.543 175.841 151.675 181.787C147.81 187.728 142.483 191.549 136.607 193.753C124.804 198.179 110.828 196.06 102.357 191.454L101.401 193.211C110.325 198.062 124.905 200.277 137.309 195.625C143.537 193.29 149.227 189.218 153.352 182.877C157.474 176.541 159.991 168.006 159.991 156.807H157.991ZM102.393 191.475C102.227 191.376 101.824 191.151 101.487 190.966C101.313 190.87 101.15 190.781 101.031 190.717C100.973 190.685 100.922 190.658 100.887 190.639C100.871 190.631 100.85 190.62 100.832 190.611C100.827 190.608 100.819 190.604 100.809 190.6C100.804 190.597 100.781 190.586 100.752 190.574C100.743 190.571 100.699 190.553 100.64 190.537C100.619 190.531 100.535 190.508 100.425 190.503C100.361 190.501 100.195 190.518 100.095 190.542C99.9344 190.604 99.6071 190.863 99.4739 191.071C99.3985 191.293 99.3927 191.68 99.432 191.83C99.4663 191.915 99.5384 192.047 99.5713 192.094C99.6319 192.177 99.6915 192.23 99.7075 192.245C99.7508 192.284 99.7881 192.31 99.7961 192.316L100.959 190.688C100.966 190.694 101.003 190.72 101.046 190.759C101.062 190.773 101.121 190.826 101.182 190.909C101.215 190.956 101.287 191.087 101.321 191.173C101.36 191.322 101.355 191.71 101.279 191.932C101.146 192.14 100.819 192.398 100.659 192.461C100.558 192.485 100.392 192.501 100.329 192.5C100.218 192.495 100.134 192.472 100.114 192.466C100.055 192.45 100.011 192.432 100.003 192.429C99.9751 192.418 99.9542 192.408 99.9513 192.406C99.9444 192.403 99.9395 192.4 99.9379 192.4C99.9338 192.398 99.9366 192.399 99.9517 192.407C99.9783 192.421 100.022 192.444 100.079 192.475C100.192 192.537 100.352 192.624 100.522 192.718C100.872 192.91 101.238 193.114 101.364 193.19L102.393 191.475ZM100.741 190.57C100.729 190.566 100.717 190.56 100.706 190.554L99.7509 192.312C99.836 192.358 99.9239 192.399 100.014 192.434L100.741 190.57ZM100.6 190.504C100.489 190.46 100.325 190.411 100.13 190.413C100.017 190.414 99.4223 190.446 99.1701 191.049C98.9424 191.593 99.2578 192.024 99.3061 192.09C99.4074 192.229 99.5283 192.332 99.6195 192.402L100.837 190.815C100.814 190.797 100.861 190.828 100.92 190.909C100.95 190.95 101.01 191.04 101.051 191.175C101.092 191.314 101.127 191.554 101.015 191.821C100.775 192.395 100.215 192.412 100.15 192.413C100.003 192.415 99.9006 192.379 99.8569 192.361L100.6 190.504ZM99.6195 192.402C99.8143 192.551 100.412 193.072 100.743 193.364L102.067 191.866C101.759 191.594 101.1 191.017 100.837 190.815L99.6195 192.402ZM100.761 193.38C104.495 196.524 110.846 199.002 118.173 200.203C125.526 201.409 133.988 201.35 142.018 199.307C150.051 197.264 157.691 193.222 163.321 186.433C168.959 179.635 172.514 170.165 172.514 157.398H170.514C170.514 169.776 167.076 178.772 161.782 185.156C156.48 191.548 149.248 195.404 141.525 197.369C133.797 199.335 125.617 199.397 118.497 198.229C111.35 197.058 105.397 194.669 102.049 191.85L100.761 193.38ZM172.514 157.401C172.55 147.419 169.518 137.667 163.829 129.465L162.186 130.605C167.641 138.47 170.549 147.822 170.514 157.394L172.514 157.401ZM163.829 129.465C158.14 121.262 150.069 115.006 140.707 111.541L140.013 113.417C148.99 116.739 156.73 122.739 162.186 130.605L163.829 129.465Z" fill="white" fill-opacity="0.39" mask="url(#path-3-inside-1_15_4)"/>
</svg>
