<svg width="176" height="176" viewBox="0 0 176 176" fill="none" xmlns="http://www.w3.org/2000/svg">
<path d="M4.1585 96.8325C-0.7195 91.9544 -0.7195 84.0456 4.1585 79.1675L79.1675 4.1585C84.0456 -0.7195 91.9544 -0.7195 96.8325 4.1585L171.841 79.1675C176.719 84.0456 176.719 91.9544 171.841 96.8325L96.8325 171.841C91.9544 176.719 84.0456 176.719 79.1675 171.841L4.1585 96.8325Z" fill="#EE513B"/>
<path d="M63.9306 19.6343L56.335 27.2302L75.9531 46.8483C75.1593 48.551 74.7162 50.4498 74.7162 52.4523C74.7162 58.1373 78.2881 62.9879 83.31 64.8823V112.874C78.2881 114.768 74.7162 119.619 74.7162 125.304C74.7162 132.639 80.6625 138.585 87.9975 138.585C95.3325 138.585 101.279 132.639 101.279 125.304C101.279 120.15 98.3431 115.681 94.0525 113.48V64.9479L112.806 83.701C112.051 85.3691 111.631 87.221 111.631 89.171C111.631 96.506 117.577 102.452 124.912 102.452C132.247 102.452 138.193 96.506 138.193 89.171C138.193 81.836 132.247 75.8898 124.912 75.8898C123.486 75.8898 122.114 76.1141 120.826 76.5298L100.686 56.3892C101.071 55.1454 101.279 53.8229 101.279 52.4523C101.279 45.1172 95.3325 39.1709 87.9975 39.1709C86.6268 39.1709 85.305 39.3786 84.0606 39.7642L63.9306 19.6343Z" fill="white"/>
</svg>
