<svg width="225" height="225" viewBox="0 0 225 225" fill="none" xmlns="http://www.w3.org/2000/svg">
<rect width="225" height="225" rx="112.5" fill="white"/>
<path d="M116.03 69.4121C115.8 70.2571 115.452 71.0921 114.987 71.9171C105.727 88.4421 96.4649 104.935 87.2 121.395" stroke="#D8411E" stroke-width="2"/>
<path d="M87.2 121.395C87.165 121.42 87.1325 121.445 87.1025 121.47" stroke="#A93710" stroke-width="2"/>
<path d="M132.357 121.568L87.2 121.395" stroke="#9C0C10" stroke-width="2"/>
<path d="M132.447 135.93C132.427 135.085 132.485 134.245 132.62 133.41C132.785 132.41 132.855 131.582 132.83 130.928C132.695 127.772 132.537 124.652 132.357 121.567" stroke="#800A0B" stroke-width="2"/>
<path d="M132.357 121.567L144.605 121.56C144.684 121.559 144.761 121.538 144.829 121.498C144.897 121.459 144.954 121.402 144.994 121.334C145.034 121.266 145.056 121.189 145.057 121.111C145.059 121.032 145.04 120.954 145.002 120.885L116.397 69.6821" stroke="#AF1419" stroke-width="2"/>
<path d="M116.03 69.4127C115.8 70.2576 115.453 71.0927 114.988 71.9177C105.727 88.4427 96.465 104.935 87.2 121.395C87.165 121.42 87.1325 121.445 87.1025 121.47L45.725 121.493C45.6958 121.492 45.667 121.485 45.6407 121.473C45.6145 121.46 45.5916 121.442 45.5735 121.419C45.5555 121.397 45.543 121.371 45.5367 121.344C45.5305 121.316 45.5308 121.287 45.5375 121.26C45.6075 120.96 45.7175 120.68 45.8675 120.42C56.5325 101.54 67.1325 82.6377 77.6675 63.7127C80.75 58.1627 83.825 54.2402 90.35 52.3202C98.1125 50.0402 106.52 53.4002 110.885 60.2327C111.68 61.4826 113.395 64.5426 116.03 69.4127Z" fill="#E56C1E"/>
<path d="M132.447 135.93C132.427 135.085 132.485 134.245 132.62 133.41C132.785 132.41 132.855 131.582 132.83 130.928C132.695 127.772 132.537 124.652 132.357 121.568L144.605 121.56C144.684 121.559 144.761 121.538 144.829 121.499C144.897 121.459 144.954 121.403 144.994 121.335C145.034 121.267 145.056 121.19 145.057 121.111C145.059 121.032 145.04 120.954 145.002 120.885L116.397 69.6825C123.44 60.495 136.64 58.98 145.077 66.585C146.943 68.265 148.878 70.905 150.882 74.505C162.393 95.145 173.782 115.45 185.052 135.42C185.242 135.75 185.148 135.915 184.767 135.915L132.447 135.93Z" fill="#921114"/>
<path d="M116.03 69.4121L116.397 69.6821L145.002 120.885C145.04 120.954 145.059 121.032 145.057 121.111C145.056 121.189 145.034 121.266 144.994 121.334C144.954 121.402 144.897 121.459 144.829 121.498C144.761 121.538 144.684 121.559 144.605 121.56L132.357 121.567L87.2 121.395C96.4649 104.935 105.727 88.4421 114.987 71.9171C115.452 71.0921 115.8 70.2571 116.03 69.4121Z" fill="#CB161D"/>
<path d="M87.1026 121.47C87.1326 121.445 87.165 121.42 87.2001 121.395L132.358 121.568C132.538 124.652 132.695 127.772 132.83 130.928C132.855 131.582 132.785 132.41 132.62 133.41C132.485 134.245 132.427 135.085 132.448 135.93L79.2951 135.923C79.2683 135.923 79.2418 135.917 79.2183 135.905C79.1947 135.892 79.1751 135.872 79.1613 135.85C79.1475 135.827 79.1401 135.8 79.1399 135.774C79.1397 135.747 79.1466 135.721 79.1601 135.698L87.1026 121.47Z" fill="#6D0202"/>
<path d="M53.6813 126.952C54.3613 126.384 54.7553 125.735 54.5613 125.503C54.3674 125.271 53.6588 125.543 52.9788 126.112C52.2988 126.681 51.9048 127.33 52.0988 127.561C52.2927 127.794 53.0012 127.521 53.6813 126.952Z" fill="#221F1E"/>
<path d="M68.1241 141.006C67.722 140.923 67.3581 140.674 67.0534 140.274C66.7488 139.874 66.5091 139.331 66.3483 138.676C66.1875 138.019 66.1086 137.265 66.1162 136.453C66.1238 135.642 66.2176 134.79 66.3924 133.945C66.5671 133.102 66.8194 132.283 67.1348 131.535C67.4502 130.787 67.8224 130.125 68.2304 129.587C68.6383 129.049 69.074 128.646 69.5124 128.4C69.9509 128.154 70.3836 128.071 70.7857 128.154C71.1879 128.237 71.5517 128.485 71.8564 128.886C72.1611 129.286 72.4007 129.829 72.5615 130.484C72.7223 131.14 72.8012 131.895 72.7936 132.706C72.786 133.518 72.6922 134.37 72.5175 135.214C72.3427 136.058 72.0904 136.877 71.775 137.625C71.4597 138.373 71.0874 139.034 70.6794 139.573C70.2715 140.11 69.8358 140.514 69.3974 140.76C68.9589 141.006 68.5263 141.089 68.1241 141.006ZM68.5071 139.791C68.7407 139.833 68.9964 139.739 69.2594 139.516C69.5225 139.292 69.7878 138.942 70.0404 138.487C70.2929 138.031 70.5276 137.479 70.7311 136.861C70.9346 136.243 71.1029 135.571 71.2263 134.885C71.4757 133.499 71.5275 132.136 71.3702 131.096C71.213 130.056 70.8596 129.424 70.3878 129.339C70.1541 129.297 69.8985 129.39 69.6354 129.614C69.3723 129.838 69.107 130.187 68.8545 130.643C68.6019 131.098 68.3673 131.651 68.1638 132.269C67.9602 132.887 67.792 133.558 67.6685 134.245C67.4191 135.631 67.3674 136.993 67.5246 138.034C67.6818 139.074 68.0352 139.706 68.5071 139.791Z" fill="#221F1E"/>
<path d="M44.5625 135.653C44.4875 135.617 44.4175 135.608 44.3525 135.623C44.2875 135.643 44.25 135.688 44.24 135.758C43.995 137.252 43.7675 138.74 43.5575 140.22C43.5125 140.505 43.345 140.653 43.055 140.663L42.6725 140.67C42.6172 140.672 42.5621 140.661 42.5113 140.639C42.4604 140.618 42.4151 140.585 42.3785 140.543C42.342 140.501 42.3151 140.452 42.2998 140.399C42.2845 140.345 42.2811 140.29 42.29 140.235L44.0375 129.128C44.0975 128.758 44.3125 128.548 44.6825 128.498C45.6475 128.363 46.5825 128.475 47.4875 128.835C47.6615 128.905 47.8163 129.015 47.939 129.158C48.0617 129.299 48.1486 129.47 48.1925 129.653C48.5675 131.237 48.2675 132.72 47.2925 134.1C47.212 134.211 47.1084 134.305 46.9883 134.375C46.8683 134.444 46.7344 134.489 46.595 134.505C46.365 134.53 46.16 134.612 45.98 134.753C45.8697 134.837 45.7876 134.953 45.7447 135.084C45.7018 135.215 45.7002 135.356 45.74 135.488L47.1425 140.22C47.1548 140.264 47.1581 140.309 47.1522 140.354C47.1462 140.399 47.1312 140.441 47.108 140.48C47.0848 140.519 47.0539 140.552 47.0173 140.579C46.9807 140.605 46.939 140.623 46.895 140.633L46.5875 140.693C46.4276 140.725 46.2614 140.696 46.1233 140.611C45.9852 140.525 45.8856 140.391 45.845 140.235L44.6225 135.728C44.6125 135.692 44.5925 135.668 44.5625 135.653ZM45.215 129.773L44.615 133.26C44.6064 133.31 44.6078 133.361 44.619 133.41C44.6302 133.46 44.6511 133.506 44.6803 133.547C44.7096 133.588 44.7468 133.623 44.7896 133.65C44.8325 133.676 44.8802 133.694 44.93 133.703L45.14 133.74C45.534 133.808 45.9402 133.706 46.2693 133.459C46.5984 133.211 46.8235 132.838 46.895 132.42L47.075 131.325C47.1468 130.907 47.0591 130.48 46.8313 130.137C46.6034 129.794 46.2541 129.563 45.86 129.495L45.6575 129.458C45.6078 129.449 45.5568 129.45 45.5075 129.461C45.4583 129.473 45.4118 129.494 45.3707 129.523C45.3295 129.552 45.2946 129.59 45.2679 129.632C45.2412 129.675 45.2232 129.723 45.215 129.773Z" fill="#221F1E"/>
<path d="M51.905 138.18L50.3 138.188C50.065 138.188 49.915 138.3 49.85 138.525L49.3625 140.25C49.2875 140.505 49.12 140.633 48.86 140.633L48.3425 140.64C48.0425 140.645 47.94 140.507 48.035 140.228C49.305 136.528 50.635 132.77 52.025 128.955C52.095 128.755 52.2225 128.61 52.4075 128.52C52.6925 128.385 52.9475 128.425 53.1725 128.64C53.2775 128.74 53.335 128.865 53.345 129.015L53.8775 140.078C53.8975 140.443 53.725 140.635 53.36 140.655L53.015 140.678C52.72 140.698 52.57 140.56 52.565 140.265L52.52 138.78C52.51 138.38 52.305 138.18 51.905 138.18ZM52.025 131.618L50.51 136.68C50.4941 136.733 50.4923 136.79 50.5049 136.844C50.5174 136.898 50.544 136.949 50.5822 136.993C50.6205 137.036 50.6693 137.07 50.7246 137.093C50.7799 137.116 50.8401 137.126 50.9 137.123L52.175 137.063C52.41 137.048 52.52 136.922 52.505 136.688C52.415 135.113 52.3625 133.49 52.3475 131.82C52.3475 131.715 52.3 131.627 52.205 131.558C52.12 131.492 52.06 131.513 52.025 131.618Z" fill="#221F1E"/>
<path d="M57.2225 128.288C57.2334 128.225 57.2688 128.169 57.3209 128.132C57.3729 128.096 57.4373 128.081 57.5 128.093L59.1125 128.378C59.9582 128.526 60.6939 129.099 61.1579 129.969C61.622 130.84 61.7765 131.937 61.5875 133.02L60.8675 137.153C60.7742 137.69 60.599 138.207 60.3521 138.676C60.1051 139.144 59.7911 139.554 59.4282 139.882C59.0653 140.21 58.6605 140.45 58.237 140.588C57.8135 140.726 57.3795 140.759 56.96 140.685L55.3475 140.4C55.2848 140.389 55.2291 140.354 55.1926 140.302C55.156 140.249 55.1416 140.185 55.1525 140.123L57.2225 128.288ZM58.235 129.518L56.585 139.283C56.5818 139.302 56.5826 139.322 56.5873 139.342C56.592 139.361 56.6006 139.379 56.6124 139.396C56.6243 139.412 56.6393 139.425 56.6564 139.436C56.6736 139.445 56.6927 139.452 56.7125 139.455L56.7725 139.463C57.0813 139.515 57.3987 139.499 57.7065 139.415C58.0142 139.331 58.3064 139.181 58.5662 138.973C58.826 138.765 59.0483 138.504 59.2205 138.205C59.3927 137.906 59.5115 137.573 59.57 137.228L60.38 132.435C60.4384 132.089 60.4352 131.736 60.3707 131.396C60.3061 131.057 60.1814 130.736 60.0038 130.455C59.8262 130.174 59.599 129.936 59.3354 129.756C59.0717 129.575 58.7768 129.456 58.4675 129.405L58.415 129.398C58.3952 129.393 58.3748 129.393 58.355 129.397C58.3351 129.401 58.3162 129.408 58.2994 129.419C58.2826 129.431 58.2682 129.445 58.2572 129.462C58.2461 129.479 58.2386 129.497 58.235 129.518Z" fill="#221F1E"/>
<path d="M64.9947 128.518L64.6539 128.464C64.4044 128.425 64.17 128.595 64.1305 128.844L62.3448 140.119C62.3053 140.368 62.4755 140.602 62.7251 140.642L63.0659 140.696C63.3154 140.736 63.5498 140.566 63.5893 140.316L65.375 129.041C65.4145 128.791 65.2442 128.557 64.9947 128.518Z" fill="#221F1E"/>
<path d="M138.935 142.852L138.035 143.362C137.88 143.449 137.701 143.481 137.526 143.452C137.351 143.424 137.192 143.336 137.075 143.205C137.015 143.14 136.965 143.068 136.925 142.987C136.71 142.567 136.798 142.225 137.188 141.96L139.1 140.662C139.35 140.492 139.612 140.47 139.888 140.595C140.638 140.93 141.277 141.45 141.808 142.155C141.973 142.375 141.993 142.607 141.868 142.852C141.673 143.237 141.37 143.443 140.96 143.467C140.67 143.488 140.425 143.39 140.225 143.175C140.09 143.025 139.927 142.907 139.738 142.822C139.468 142.693 139.2 142.702 138.935 142.852Z" fill="#221F1E"/>
<path d="M72.4026 147.765C72.3476 148.1 72.1551 148.245 71.8251 148.2C63.5826 147.128 62.5701 162.105 69.7776 160.403C69.8444 160.388 69.914 160.388 69.9803 160.406C70.0466 160.424 70.1075 160.457 70.1578 160.504C70.2082 160.55 70.2463 160.609 70.2689 160.673C70.2915 160.738 70.298 160.808 70.2876 160.875L69.8976 163.493C69.8626 163.758 69.7201 163.94 69.4701 164.04C68.7601 164.336 68.0126 164.43 67.2276 164.325C55.5876 162.78 60.8151 142.853 72.3726 144.518C72.7376 144.568 72.8901 144.776 72.8301 145.14L72.4026 147.765Z" fill="#221F1E"/>
<path d="M76.4689 164.422C75.603 164.168 74.8216 163.657 74.1693 162.919C73.5169 162.18 73.0065 161.227 72.667 160.114C72.3277 159.002 72.1659 157.753 72.191 156.436C72.2162 155.12 72.4278 153.764 72.8137 152.444C73.593 149.779 75.0352 147.426 76.8229 145.903C78.6105 144.38 80.5973 143.812 82.3461 144.323C83.212 144.577 83.9935 145.087 84.6457 145.826C85.2981 146.565 85.8085 147.517 86.148 148.63C86.4874 149.742 86.6491 150.992 86.624 152.308C86.5988 153.624 86.3872 154.981 86.0014 156.301C85.222 158.965 83.7799 161.319 81.9922 162.841C80.2045 164.365 78.2177 164.933 76.4689 164.422ZM78.1723 160.894C78.5256 160.961 78.9073 160.858 79.2958 160.591C79.6842 160.324 80.0717 159.898 80.4361 159.339C80.8006 158.779 81.1349 158.096 81.42 157.328C81.705 156.561 81.9352 155.724 82.0974 154.866C82.425 153.132 82.4557 151.416 82.183 150.094C81.9101 148.774 81.3561 147.955 80.6427 147.82C80.2894 147.754 79.9077 147.856 79.5193 148.123C79.1308 148.39 78.7433 148.816 78.3789 149.376C78.0144 149.935 77.6801 150.619 77.395 151.386C77.11 152.154 76.8799 152.991 76.7176 153.849C76.39 155.583 76.3593 157.299 76.6321 158.62C76.9049 159.941 77.4589 160.759 78.1723 160.894Z" fill="#221F1E"/>
<path d="M166.925 163.305C166.845 163.895 166.507 164.218 165.913 164.273C152.743 165.473 156.493 143.205 168.935 144.465C169.545 144.53 169.805 144.865 169.715 145.47L169.393 147.593C169.333 147.998 169.1 148.185 168.695 148.155C160.325 147.585 159.688 161.993 166.655 160.365C167.11 160.26 167.308 160.44 167.248 160.905L166.925 163.305Z" fill="#221F1E"/>
<path d="M38.6675 163.635L41.6 144.885C41.6144 144.792 41.6618 144.708 41.7334 144.647C41.8051 144.587 41.8962 144.554 41.99 144.555H45.1625C45.2185 144.555 45.2738 144.568 45.3246 144.592C45.3754 144.615 45.4205 144.65 45.4568 144.692C45.4931 144.735 45.5198 144.785 45.535 144.839C45.5502 144.893 45.5536 144.95 45.545 145.005L42.5825 163.748C42.5683 163.839 42.522 163.922 42.4519 163.983C42.3818 164.043 42.2925 164.077 42.2 164.078L39.0575 164.085C39.0008 164.086 38.9447 164.074 38.893 164.051C38.8413 164.027 38.7952 163.993 38.7581 163.95C38.721 163.907 38.6937 163.857 38.678 163.802C38.6624 163.748 38.6588 163.691 38.6675 163.635Z" fill="#221F1E"/>
<path d="M50.675 154.042L49.2275 163.552C49.1774 163.897 48.9775 164.07 48.6275 164.07L45.725 164.077C45.6575 164.077 45.5908 164.062 45.5294 164.034C45.4682 164.005 45.4136 163.964 45.3696 163.913C45.3255 163.862 45.2929 163.802 45.274 163.737C45.2551 163.672 45.2503 163.604 45.26 163.537L48.2 144.967C48.2399 144.692 48.4 144.555 48.68 144.555L51.485 144.562C51.865 144.562 52.1 144.748 52.19 145.117L54.425 154.32C54.67 155.325 54.8675 155.317 55.0175 154.297L56.4275 144.975C56.4674 144.69 56.6324 144.547 56.9225 144.547L60.1025 144.57C60.3325 144.57 60.43 144.682 60.395 144.907L57.4625 163.485C57.3974 163.885 57.1625 164.085 56.7575 164.085L54.2825 164.077C53.8375 164.077 53.5625 163.862 53.4575 163.432L51.17 154.02C50.9699 153.19 50.8049 153.197 50.675 154.042Z" fill="#221F1E"/>
<path d="M92.2026 154.08L90.6876 163.868C90.6785 163.931 90.6469 163.988 90.5987 164.03C90.5504 164.071 90.4887 164.093 90.4251 164.093L87.0276 164.108C86.989 164.108 86.9507 164.1 86.9156 164.084C86.8804 164.069 86.8491 164.045 86.8241 164.016C86.799 163.986 86.7807 163.952 86.7705 163.915C86.7603 163.877 86.7585 163.838 86.7651 163.8L89.7426 144.803C89.7517 144.74 89.7833 144.683 89.8316 144.641C89.8799 144.599 89.9415 144.577 90.0051 144.578L93.3801 144.57C93.4405 144.569 93.4996 144.588 93.5474 144.625C93.5952 144.662 93.6288 144.714 93.6426 144.773L96.1026 154.808C96.1189 154.865 96.1538 154.914 96.2016 154.949C96.2495 154.983 96.3076 155 96.3665 154.997C96.4254 154.995 96.4817 154.973 96.5264 154.934C96.571 154.895 96.6014 154.843 96.6126 154.785L98.0001 144.818C98.009 144.756 98.0396 144.7 98.0863 144.659C98.1329 144.617 98.1928 144.594 98.2551 144.593L101.713 144.555C101.751 144.556 101.788 144.565 101.822 144.581C101.857 144.597 101.887 144.621 101.911 144.65C101.935 144.68 101.953 144.713 101.963 144.75C101.972 144.787 101.974 144.825 101.968 144.863L98.9151 163.853C98.9044 163.914 98.8721 163.97 98.824 164.01C98.7758 164.05 98.7151 164.071 98.6526 164.07L95.3601 164.093C95.2997 164.094 95.2406 164.075 95.1929 164.038C95.145 164.001 95.1114 163.949 95.0976 163.89L92.7201 154.058C92.7073 153.997 92.6733 153.943 92.6242 153.905C92.5751 153.866 92.5139 153.847 92.4518 153.85C92.3897 153.852 92.3305 153.877 92.2849 153.919C92.2392 153.962 92.21 154.019 92.2026 154.08Z" fill="#221F1E"/>
<path d="M106.67 156.405L105.538 163.695C105.521 163.804 105.466 163.906 105.382 163.978C105.298 164.051 105.191 164.092 105.08 164.092H102.058C101.99 164.093 101.922 164.079 101.86 164.051C101.798 164.023 101.743 163.982 101.699 163.93C101.655 163.879 101.622 163.819 101.604 163.753C101.585 163.688 101.582 163.619 101.593 163.552L104.525 144.96C104.543 144.851 104.599 144.752 104.682 144.681C104.766 144.61 104.872 144.57 104.983 144.57H111.973C112.04 144.57 112.106 144.585 112.167 144.613C112.228 144.641 112.282 144.683 112.326 144.734C112.369 144.785 112.401 144.846 112.419 144.91C112.437 144.976 112.441 145.043 112.43 145.11L111.95 147.967C111.932 148.077 111.875 148.177 111.79 148.249C111.705 148.32 111.596 148.359 111.485 148.357L108.328 148.312C108.215 148.311 108.106 148.351 108.02 148.423C107.935 148.497 107.879 148.598 107.863 148.71L107.428 151.867C107.419 151.933 107.425 152.002 107.445 152.065C107.464 152.13 107.498 152.188 107.543 152.239C107.588 152.288 107.643 152.328 107.705 152.354C107.766 152.381 107.833 152.394 107.9 152.392L110.36 152.347C110.429 152.346 110.497 152.36 110.559 152.389C110.622 152.417 110.677 152.459 110.722 152.511C110.766 152.563 110.799 152.625 110.816 152.692C110.834 152.758 110.837 152.827 110.825 152.895L110.315 155.685C110.295 155.794 110.237 155.893 110.15 155.964C110.063 156.034 109.954 156.071 109.843 156.067L107.135 156.007C107.023 156.006 106.913 156.046 106.828 156.118C106.742 156.192 106.686 156.293 106.67 156.405Z" fill="#221F1E"/>
<path d="M118.663 145.125L115.693 163.673C115.673 163.787 115.614 163.892 115.525 163.968C115.435 164.043 115.322 164.085 115.205 164.085L112.303 164.093C112.231 164.092 112.161 164.077 112.096 164.047C112.032 164.017 111.974 163.973 111.928 163.919C111.882 163.865 111.848 163.802 111.828 163.733C111.809 163.664 111.804 163.593 111.815 163.523L114.695 145.013C114.713 144.896 114.772 144.789 114.862 144.713C114.951 144.635 115.065 144.593 115.183 144.593L118.16 144.548C118.234 144.545 118.306 144.56 118.373 144.589C118.44 144.618 118.5 144.662 118.548 144.717C118.596 144.773 118.631 144.838 118.651 144.908C118.671 144.979 118.675 145.053 118.663 145.125Z" fill="#221F1E"/>
<path d="M127.753 145.02C133.4 146.895 132.095 154.71 130.213 158.947C128.72 162.307 125.713 164.1 122.098 164.085C120.933 164.08 119.805 164.07 118.715 164.055C118.666 164.056 118.618 164.045 118.573 164.026C118.528 164.005 118.488 163.975 118.456 163.939C118.423 163.901 118.4 163.858 118.387 163.81C118.373 163.763 118.37 163.714 118.378 163.665L121.273 145.095C121.308 144.855 121.445 144.72 121.685 144.69C124.08 144.365 126.103 144.475 127.753 145.02ZM124.828 147.982L122.78 160.38C122.776 160.405 122.781 160.43 122.795 160.451C122.809 160.472 122.83 160.487 122.855 160.492L122.9 160.5C123.373 160.579 123.868 160.502 124.356 160.273C124.843 160.043 125.314 159.666 125.742 159.162C126.169 158.659 126.546 158.038 126.848 157.338C127.15 156.637 127.374 155.869 127.505 155.077L127.595 154.53C127.726 153.738 127.763 152.939 127.703 152.177C127.642 151.416 127.487 150.707 127.244 150.092C127.002 149.477 126.678 148.968 126.29 148.593C125.902 148.218 125.459 147.985 124.985 147.907L124.94 147.9C124.927 147.898 124.914 147.898 124.902 147.901C124.889 147.904 124.877 147.91 124.867 147.917C124.856 147.925 124.847 147.935 124.84 147.946C124.834 147.957 124.829 147.97 124.828 147.982Z" fill="#221F1E"/>
<path d="M137.262 160.463L139.715 160.41C139.81 160.408 139.904 160.427 139.991 160.465C140.078 160.503 140.155 160.56 140.217 160.631C140.28 160.703 140.325 160.787 140.352 160.879C140.377 160.97 140.383 161.066 140.367 161.16L139.985 163.538C139.96 163.688 139.882 163.826 139.765 163.925C139.649 164.024 139.5 164.078 139.347 164.078H132.762C132.669 164.078 132.578 164.057 132.493 164.018C132.408 163.98 132.333 163.923 132.273 163.853C132.213 163.782 132.168 163.7 132.142 163.61C132.117 163.521 132.111 163.427 132.125 163.335L134.96 145.14C134.983 144.989 135.059 144.851 135.174 144.751C135.29 144.65 135.437 144.594 135.59 144.593L142.13 144.533C142.222 144.532 142.313 144.551 142.398 144.588C142.482 144.626 142.557 144.681 142.618 144.749C142.679 144.818 142.725 144.9 142.752 144.988C142.779 145.076 142.787 145.169 142.775 145.26L142.43 147.818C142.408 147.974 142.329 148.117 142.209 148.219C142.089 148.322 141.935 148.376 141.777 148.373L138.98 148.313C138.826 148.308 138.676 148.358 138.557 148.455C138.437 148.551 138.356 148.687 138.327 148.838L137.825 151.613C137.807 151.706 137.811 151.802 137.835 151.895C137.858 151.987 137.902 152.072 137.963 152.146C138.024 152.219 138.1 152.277 138.186 152.318C138.273 152.357 138.367 152.378 138.462 152.378L140.525 152.363C140.619 152.361 140.712 152.381 140.799 152.42C140.885 152.459 140.961 152.516 141.023 152.587C141.084 152.659 141.129 152.743 141.155 152.834C141.18 152.924 141.185 153.02 141.17 153.113L140.765 155.565C140.741 155.712 140.666 155.846 140.554 155.945C140.442 156.044 140.299 156.1 140.15 156.105L137.69 156.158C137.538 156.161 137.393 156.218 137.279 156.318C137.165 156.418 137.09 156.555 137.067 156.705L136.61 159.72C136.596 159.813 136.602 159.908 136.629 159.999C136.655 160.089 136.701 160.173 136.763 160.244C136.825 160.314 136.902 160.37 136.989 160.409C137.075 160.446 137.168 160.465 137.262 160.463Z" fill="#221F1E"/>
<path d="M145.835 164.093L142.422 164.07C142.384 164.071 142.347 164.063 142.312 164.047C142.278 164.032 142.247 164.009 142.222 163.981C142.197 163.952 142.179 163.919 142.168 163.882C142.157 163.846 142.155 163.808 142.16 163.77L145.175 144.788C145.184 144.725 145.215 144.667 145.264 144.626C145.312 144.584 145.374 144.562 145.437 144.563H148.797C148.857 144.563 148.914 144.583 148.96 144.62C149.007 144.656 149.039 144.707 149.052 144.765L151.452 154.605C151.466 154.666 151.5 154.72 151.551 154.758C151.6 154.796 151.662 154.814 151.724 154.811C151.786 154.807 151.845 154.781 151.89 154.738C151.935 154.695 151.964 154.637 151.97 154.575L153.402 144.788C153.411 144.725 153.443 144.667 153.492 144.626C153.54 144.584 153.601 144.562 153.665 144.563L157.115 144.6C157.152 144.6 157.19 144.608 157.225 144.623C157.26 144.638 157.29 144.662 157.315 144.69C157.34 144.719 157.359 144.752 157.369 144.788C157.38 144.824 157.383 144.863 157.377 144.9L154.347 163.853C154.337 163.914 154.305 163.97 154.256 164.01C154.208 164.05 154.147 164.071 154.085 164.07L150.74 164.078C150.681 164.078 150.624 164.057 150.577 164.021C150.531 163.984 150.498 163.933 150.485 163.875L148.152 154.043C148.14 153.982 148.106 153.927 148.056 153.89C148.008 153.851 147.946 153.832 147.884 153.834C147.822 153.837 147.763 153.862 147.717 153.904C147.672 153.947 147.642 154.004 147.635 154.065L146.097 163.868C146.088 163.931 146.057 163.988 146.008 164.03C145.96 164.071 145.899 164.093 145.835 164.093Z" fill="#221F1E"/>
<path d="M175.595 145.102L172.64 163.665C172.622 163.78 172.564 163.884 172.476 163.96C172.388 164.035 172.276 164.077 172.16 164.077H169.175C169.104 164.077 169.035 164.062 168.972 164.032C168.908 164.002 168.852 163.96 168.806 163.906C168.76 163.853 168.726 163.79 168.708 163.723C168.688 163.655 168.684 163.584 168.695 163.515L171.627 145.02C171.646 144.909 171.703 144.808 171.788 144.734C171.873 144.661 171.98 144.619 172.092 144.615L175.1 144.54C175.171 144.538 175.242 144.552 175.308 144.58C175.374 144.609 175.432 144.652 175.479 144.705C175.527 144.759 175.561 144.822 175.581 144.891C175.602 144.959 175.606 145.032 175.595 145.102Z" fill="#221F1E"/>
<path d="M182.63 160.867L179.42 160.845C179.323 160.843 179.227 160.873 179.147 160.93C179.068 160.987 179.008 161.067 178.978 161.16L178.145 163.755C178.115 163.846 178.057 163.927 177.979 163.983C177.901 164.039 177.807 164.07 177.71 164.07L174.703 164.085C174.628 164.085 174.555 164.067 174.489 164.032C174.423 163.998 174.367 163.948 174.325 163.886C174.283 163.825 174.256 163.754 174.247 163.681C174.239 163.606 174.248 163.531 174.275 163.462L181.543 144.84C181.576 144.754 181.635 144.679 181.711 144.628C181.787 144.575 181.878 144.547 181.97 144.547L185.398 144.57C185.512 144.571 185.62 144.615 185.704 144.693C185.787 144.771 185.839 144.877 185.848 144.99L187.34 163.605C187.345 163.669 187.337 163.733 187.316 163.793C187.295 163.854 187.261 163.909 187.218 163.956C187.174 164.002 187.12 164.039 187.062 164.064C187.003 164.089 186.939 164.101 186.875 164.1L183.598 164.07C183.479 164.07 183.364 164.024 183.28 163.941C183.194 163.858 183.144 163.746 183.14 163.627L183.088 161.31C183.084 161.191 183.034 161.079 182.948 160.996C182.863 160.913 182.749 160.867 182.63 160.867ZM182.885 157.537L182.803 151.342C182.793 150.497 182.647 150.472 182.368 151.267C181.648 153.313 180.985 155.398 180.38 157.522C180.345 157.652 180.393 157.717 180.523 157.717L182.713 157.71C182.827 157.71 182.885 157.652 182.885 157.537Z" fill="#221F1E"/>
<path d="M142.595 169.028C142.52 168.953 142.465 168.868 142.43 168.773C142.325 168.452 142.438 168.26 142.768 168.195C143.092 168.13 143.335 168.218 143.495 168.458C143.6 168.613 143.638 168.782 143.608 168.968C143.317 170.728 143.008 172.4 142.678 173.985C142.623 174.23 142.475 174.323 142.235 174.263L142.048 174.21C142.027 174.205 142.02 174.193 142.025 174.173L142.82 169.733C142.87 169.457 142.795 169.223 142.595 169.028Z" fill="#221F1E"/>
<path d="M145.448 174.517C145.264 174.482 145.098 174.363 144.96 174.167C144.822 173.972 144.714 173.705 144.642 173.381C144.571 173.056 144.537 172.68 144.543 172.275C144.549 171.871 144.594 171.444 144.676 171.02C144.843 170.165 145.149 169.374 145.529 168.82C145.909 168.266 146.331 167.996 146.702 168.068C146.886 168.104 147.051 168.222 147.189 168.417C147.327 168.612 147.435 168.88 147.507 169.205C147.579 169.529 147.613 169.905 147.607 170.31C147.601 170.714 147.556 171.141 147.474 171.564C147.307 172.42 147 173.211 146.621 173.765C146.241 174.319 145.819 174.59 145.448 174.517ZM145.681 173.769C145.881 173.804 146.118 173.572 146.338 173.126C146.559 172.679 146.747 172.055 146.859 171.39C146.915 171.061 146.95 170.732 146.964 170.421C146.978 170.111 146.969 169.825 146.938 169.58C146.907 169.336 146.856 169.137 146.785 168.995C146.715 168.854 146.628 168.773 146.529 168.755C146.329 168.722 146.092 168.953 145.872 169.4C145.65 169.846 145.463 170.47 145.35 171.135C145.295 171.464 145.26 171.794 145.246 172.104C145.232 172.415 145.241 172.7 145.272 172.945C145.302 173.189 145.354 173.388 145.425 173.53C145.494 173.672 145.582 173.753 145.681 173.769Z" fill="#221F1E"/>
<path d="M148.751 174.498C148.384 174.424 148.101 174.016 147.963 173.362C147.825 172.708 147.844 171.864 148.015 171.014C148.1 170.593 148.22 170.183 148.368 169.808C148.515 169.433 148.689 169.101 148.877 168.829C149.065 168.557 149.265 168.352 149.466 168.224C149.666 168.097 149.862 168.05 150.044 168.087C150.411 168.161 150.694 168.57 150.832 169.223C150.97 169.876 150.951 170.721 150.78 171.571C150.695 171.992 150.575 172.402 150.427 172.777C150.279 173.152 150.106 173.485 149.918 173.756C149.73 174.028 149.529 174.233 149.329 174.361C149.129 174.488 148.932 174.535 148.751 174.498ZM149.031 173.73C149.131 173.746 149.241 173.696 149.352 173.584C149.465 173.472 149.577 173.3 149.685 173.078C149.792 172.855 149.891 172.587 149.976 172.288C150.062 171.989 150.132 171.666 150.183 171.336C150.234 171.006 150.265 170.676 150.274 170.365C150.283 170.054 150.27 169.768 150.234 169.525C150.2 169.28 150.144 169.082 150.072 168.941C149.998 168.801 149.909 168.721 149.809 168.705C149.709 168.689 149.599 168.739 149.487 168.851C149.375 168.963 149.262 169.135 149.155 169.357C149.048 169.579 148.949 169.848 148.863 170.147C148.778 170.446 148.707 170.77 148.656 171.1C148.605 171.43 148.575 171.759 148.566 172.07C148.557 172.381 148.57 172.666 148.605 172.911C148.64 173.155 148.695 173.353 148.768 173.494C148.842 173.635 148.931 173.715 149.031 173.73Z" fill="#221F1E"/>
<path d="M153.995 171.72C153.06 171 152.907 170.072 153.537 168.938C153.942 168.203 154.552 168 155.367 168.33C155.49 168.38 155.598 168.461 155.68 168.565C155.761 168.669 155.814 168.792 155.832 168.923C156.11 170.723 154.685 172.838 153.717 174.3C153.657 174.39 153.585 174.403 153.5 174.338L153.327 174.203C153.292 174.173 153.282 174.135 153.297 174.09C153.487 173.505 153.755 172.98 154.1 172.515C154.325 172.215 154.29 171.95 153.995 171.72ZM154.369 171.094C154.548 171.126 154.74 171.035 154.906 170.84C155.071 170.646 155.196 170.364 155.251 170.057C155.307 169.75 155.29 169.442 155.204 169.202C155.117 168.962 154.968 168.809 154.791 168.776C154.612 168.744 154.419 168.835 154.254 169.03C154.089 169.224 153.964 169.505 153.909 169.813C153.852 170.12 153.87 170.428 153.956 170.668C154.043 170.908 154.191 171.061 154.369 171.094Z" fill="#221F1E"/>
<path d="M159.312 170.887L159.56 170.902C160.085 170.932 160.102 171.045 159.612 171.24L158.982 171.487C158.712 171.592 158.56 171.79 158.525 172.08L158.277 174.15C158.274 174.178 158.265 174.205 158.25 174.229C158.235 174.253 158.215 174.273 158.192 174.289C158.168 174.304 158.141 174.313 158.113 174.316C158.085 174.319 158.057 174.316 158.03 174.307L157.76 174.21C157.635 174.16 157.585 174.07 157.61 173.94L158.42 168.817C158.45 168.607 158.56 168.452 158.75 168.352C159.22 168.107 159.693 168.115 160.167 168.375C160.497 168.555 160.48 168.692 160.115 168.787L159.41 168.967C159.065 169.057 158.892 169.28 158.892 169.635V170.437C158.892 170.717 159.033 170.867 159.312 170.887Z" fill="#221F1E"/>
<path d="M169.738 170.407C169.533 169.747 169.655 169.142 170.105 168.592C170.24 168.427 170.419 168.304 170.622 168.237C170.824 168.17 171.042 168.163 171.248 168.216C171.455 168.268 171.642 168.379 171.787 168.535C171.933 168.691 172.031 168.885 172.07 169.095C172.16 169.56 172.042 169.997 171.718 170.407C171.502 170.672 171.445 170.967 171.545 171.292C171.845 172.267 171.645 173.187 170.945 174.052C170.812 174.216 170.635 174.337 170.435 174.403C170.235 174.468 170.02 174.473 169.817 174.418C169.613 174.364 169.43 174.25 169.29 174.094C169.15 173.937 169.057 173.743 169.025 173.535C168.89 172.63 169.083 171.844 169.603 171.18C169.783 170.95 169.828 170.692 169.738 170.407ZM170.638 170.449C170.72 170.473 170.808 170.476 170.896 170.458C170.983 170.44 171.069 170.401 171.149 170.344C171.229 170.287 171.301 170.212 171.36 170.124C171.42 170.036 171.466 169.936 171.496 169.832C171.559 169.62 171.551 169.397 171.478 169.213C171.403 169.029 171.268 168.898 171.103 168.85C171.02 168.826 170.932 168.823 170.845 168.841C170.757 168.859 170.671 168.898 170.591 168.955C170.512 169.013 170.44 169.088 170.38 169.176C170.32 169.264 170.274 169.363 170.243 169.468C170.182 169.68 170.189 169.902 170.263 170.086C170.337 170.27 170.472 170.401 170.638 170.449ZM170.017 173.698C170.19 173.742 170.389 173.656 170.571 173.459C170.752 173.261 170.901 172.969 170.984 172.645C171.067 172.321 171.078 171.994 171.014 171.733C170.95 171.472 170.817 171.301 170.644 171.257C170.47 171.212 170.271 171.298 170.089 171.496C169.908 171.693 169.759 171.985 169.676 172.309C169.593 172.633 169.582 172.961 169.646 173.221C169.71 173.482 169.843 173.653 170.017 173.698Z" fill="#221F1E"/>
<path d="M174.852 171.3C175.122 172.09 174.97 172.935 174.395 173.835C174.025 174.415 173.485 174.56 172.775 174.27C172.548 174.179 172.365 174.001 172.269 173.775C172.172 173.548 172.167 173.293 172.257 173.062C172.717 171.877 172.987 170.713 173.067 169.567C173.12 168.742 173.787 167.932 174.695 168.187C174.823 168.226 174.94 168.297 175.033 168.393C175.126 168.489 175.193 168.607 175.227 168.735C175.407 169.4 175.308 170.04 174.927 170.655C174.869 170.752 174.831 170.86 174.819 170.971C174.806 171.082 174.817 171.194 174.852 171.3ZM173.868 170.508C174 170.55 174.153 170.5 174.297 170.37C174.44 170.24 174.561 170.041 174.633 169.815C174.669 169.703 174.691 169.588 174.699 169.477C174.708 169.366 174.701 169.261 174.681 169.168C174.66 169.074 174.625 168.994 174.579 168.932C174.533 168.871 174.476 168.828 174.411 168.808C174.28 168.766 174.126 168.815 173.983 168.945C173.84 169.075 173.719 169.275 173.647 169.5C173.611 169.612 173.589 169.726 173.58 169.837C173.572 169.948 173.579 170.054 173.599 170.148C173.62 170.241 173.655 170.321 173.7 170.383C173.747 170.445 173.804 170.487 173.868 170.508ZM173.367 173.643C173.55 173.692 173.758 173.62 173.946 173.439C174.134 173.258 174.286 172.986 174.369 172.681C174.453 172.375 174.461 172.063 174.391 171.812C174.321 171.561 174.18 171.392 173.997 171.343C173.815 171.292 173.607 171.366 173.419 171.547C173.231 171.727 173.079 172 172.995 172.305C172.911 172.609 172.904 172.922 172.974 173.173C173.044 173.424 173.185 173.593 173.367 173.643Z" fill="#221F1E"/>
<path d="M176.559 174.503C176.194 174.434 175.909 174.028 175.767 173.375C175.624 172.724 175.636 171.879 175.801 171.028C175.882 170.606 175.998 170.195 176.142 169.819C176.286 169.442 176.455 169.108 176.641 168.835C176.827 168.561 177.024 168.354 177.222 168.224C177.42 168.095 177.615 168.047 177.796 168.082C178.162 168.152 178.447 168.558 178.588 169.21C178.731 169.862 178.719 170.706 178.555 171.558C178.474 171.98 178.357 172.391 178.213 172.766C178.069 173.143 177.9 173.477 177.714 173.751C177.529 174.024 177.331 174.232 177.133 174.361C176.935 174.49 176.74 174.539 176.559 174.503ZM176.766 173.735C176.869 173.752 176.981 173.703 177.097 173.591C177.212 173.48 177.329 173.308 177.439 173.085C177.55 172.862 177.652 172.593 177.741 172.293C177.829 171.992 177.902 171.668 177.955 171.336C178.009 171.005 178.041 170.672 178.05 170.36C178.06 170.047 178.047 169.76 178.011 169.514C177.976 169.267 177.919 169.067 177.844 168.925C177.769 168.783 177.678 168.701 177.574 168.685C177.472 168.668 177.359 168.717 177.244 168.829C177.128 168.941 177.011 169.113 176.901 169.336C176.791 169.559 176.688 169.828 176.599 170.128C176.511 170.428 176.438 170.753 176.385 171.085C176.332 171.416 176.299 171.748 176.29 172.061C176.281 172.373 176.293 172.661 176.329 172.907C176.365 173.153 176.421 173.353 176.496 173.495C176.571 173.637 176.662 173.719 176.766 173.735Z" fill="#221F1E"/>
<path d="M186.425 171.525C185.97 172.285 185.69 173.062 185.585 173.857C185.565 174.043 185.463 174.142 185.277 174.157C185.193 174.167 185.107 174.17 185.022 174.165C184.923 174.16 184.875 174.107 184.88 174.007C184.9 173.542 184.897 173.12 184.872 172.74C184.777 171.49 184.527 171.457 184.122 172.642L183.762 173.685C183.672 173.955 183.498 174.145 183.237 174.255C183.097 174.315 182.95 174.343 182.795 174.337C182.46 174.337 182.275 174.17 182.24 173.835C182.215 173.545 182.092 173.305 181.872 173.115C181.692 172.96 181.503 172.945 181.302 173.07C180.972 173.27 180.772 173.575 180.702 173.985C180.682 174.115 180.607 174.175 180.477 174.165L180.222 174.157C180.027 174.148 179.962 174.05 180.027 173.865L181.88 168.66C181.935 168.505 182.04 168.405 182.195 168.36C182.33 168.32 182.448 168.34 182.547 168.42C182.742 168.57 182.825 168.77 182.795 169.02C182.665 170.1 182.64 171.14 182.72 172.14C182.84 173.52 183.13 173.557 183.59 172.252C183.97 171.178 184.285 170.05 184.535 168.87C184.585 168.61 184.743 168.47 185.007 168.45L185.202 168.435C185.362 168.42 185.44 168.493 185.435 168.652C185.41 169.172 185.345 169.768 185.24 170.437C185.195 170.698 185.238 170.955 185.367 171.21C185.527 171.535 185.673 171.527 185.802 171.187L186.875 168.412C186.905 168.337 186.922 168.3 186.927 168.3L187.182 168.33C187.383 168.35 187.477 168.46 187.467 168.66L187.257 174.052C187.252 174.227 187.17 174.285 187.01 174.225L186.74 174.135C186.655 174.105 186.62 174.045 186.635 173.955C186.745 173.15 186.768 172.36 186.702 171.585C186.678 171.285 186.585 171.265 186.425 171.525ZM181.737 171.135C181.473 171.345 181.335 171.595 181.325 171.885C181.29 172.63 181.505 172.712 181.97 172.132C182.275 171.757 182.287 171.315 182.007 170.805C181.953 170.7 181.887 170.695 181.812 170.79C181.773 170.84 181.765 170.902 181.79 170.977C181.805 171.043 181.788 171.095 181.737 171.135Z" fill="#221F1E"/>
<path d="M162.77 171.45C163.08 171.685 163.16 171.977 163.01 172.328C162.84 172.712 162.682 173.102 162.537 173.498C162.157 174.507 161.905 174.477 161.78 173.408C161.74 173.063 161.742 172.707 161.787 172.343C161.922 171.332 161.725 171.263 161.195 172.133C160.9 172.617 160.743 173.2 160.722 173.88C160.72 173.934 160.707 173.987 160.681 174.036C160.656 174.084 160.622 174.127 160.579 174.161C160.536 174.194 160.487 174.218 160.434 174.23C160.38 174.242 160.326 174.243 160.272 174.233L160.077 174.188C159.993 174.173 159.963 174.122 159.987 174.038L161.727 168.585C161.763 168.48 161.835 168.428 161.945 168.428H162.147C162.273 168.428 162.337 168.49 162.342 168.615L162.41 170.753C162.42 171.042 162.54 171.275 162.77 171.45Z" fill="#221F1E"/>
<path d="M164.337 174.21C164.337 174.232 164.328 174.253 164.313 174.268C164.298 174.284 164.277 174.292 164.255 174.292H164.232C164.006 174.292 163.788 174.025 163.626 173.55C163.464 173.074 163.372 172.429 163.37 171.757V170.872C163.369 170.539 163.39 170.21 163.432 169.902C163.474 169.594 163.536 169.315 163.615 169.08C163.694 168.844 163.788 168.658 163.89 168.53C163.994 168.403 164.105 168.337 164.217 168.337H164.24C164.25 168.337 164.262 168.34 164.271 168.344C164.281 168.348 164.291 168.354 164.298 168.361C164.306 168.37 164.312 168.379 164.316 168.388C164.32 168.398 164.322 168.409 164.322 168.42L164.337 174.21Z" fill="#221F1E"/>
<path d="M132.448 135.93C132.427 135.085 132.485 134.245 132.62 133.41C132.785 132.41 132.855 131.582 132.83 130.928C132.695 127.772 132.538 124.652 132.358 121.568L144.605 121.56C144.684 121.559 144.761 121.538 144.829 121.499C144.898 121.459 144.955 121.403 144.994 121.335C145.034 121.267 145.056 121.19 145.057 121.111C145.059 121.032 145.04 120.954 145.003 120.885L116.398 69.6825C123.44 60.495 136.64 58.98 145.078 66.585C146.943 68.265 148.878 70.905 150.883 74.505C162.393 95.145 173.782 115.45 185.053 135.42C185.242 135.75 185.148 135.915 184.768 135.915L132.448 135.93Z" fill="#921114"/>
<path d="M166.925 163.305C166.845 163.895 166.507 164.217 165.913 164.272C152.743 165.472 156.493 143.205 168.935 144.465C169.545 144.53 169.805 144.864 169.715 145.47L169.393 147.592C169.333 147.997 169.1 148.185 168.695 148.155C160.325 147.585 159.688 161.992 166.655 160.365C167.11 160.26 167.308 160.44 167.248 160.905L166.925 163.305Z" fill="#221F1E"/>
<path d="M145.835 164.093L142.422 164.07C142.384 164.071 142.346 164.063 142.312 164.047C142.277 164.032 142.247 164.009 142.222 163.981C142.197 163.952 142.178 163.919 142.168 163.882C142.157 163.846 142.154 163.808 142.16 163.77L145.175 144.788C145.184 144.725 145.215 144.667 145.264 144.626C145.312 144.584 145.373 144.562 145.437 144.563H148.797C148.856 144.563 148.913 144.583 148.96 144.62C149.006 144.656 149.039 144.707 149.052 144.765L151.452 154.605C151.466 154.666 151.5 154.72 151.55 154.758C151.6 154.796 151.661 154.814 151.724 154.811C151.786 154.807 151.845 154.781 151.89 154.738C151.935 154.695 151.964 154.637 151.97 154.575L153.402 144.788C153.411 144.725 153.443 144.667 153.491 144.626C153.539 144.584 153.601 144.562 153.665 144.563L157.115 144.6C157.152 144.6 157.19 144.608 157.225 144.623C157.259 144.638 157.29 144.662 157.315 144.69C157.34 144.719 157.358 144.752 157.369 144.788C157.38 144.824 157.382 144.863 157.377 144.9L154.347 163.853C154.337 163.914 154.304 163.97 154.256 164.01C154.208 164.05 154.147 164.071 154.085 164.07L150.74 164.078C150.68 164.078 150.623 164.057 150.577 164.021C150.53 163.984 150.498 163.933 150.485 163.875L148.152 154.043C148.139 153.982 148.106 153.927 148.056 153.89C148.007 153.851 147.946 153.832 147.884 153.834C147.821 153.837 147.763 153.862 147.717 153.904C147.671 153.947 147.642 154.004 147.635 154.065L146.097 163.868C146.088 163.931 146.057 163.988 146.008 164.03C145.96 164.071 145.898 164.093 145.835 164.093Z" fill="#221F1E"/>
<path d="M175.595 145.102L172.64 163.664C172.622 163.779 172.564 163.883 172.475 163.959C172.388 164.035 172.276 164.076 172.16 164.077H169.175C169.104 164.077 169.035 164.061 168.971 164.032C168.908 164.002 168.851 163.959 168.806 163.906C168.76 163.853 168.726 163.79 168.707 163.722C168.688 163.655 168.684 163.583 168.695 163.514L171.627 145.019C171.646 144.908 171.703 144.808 171.788 144.734C171.872 144.66 171.98 144.618 172.092 144.614L175.1 144.539C175.171 144.537 175.242 144.551 175.307 144.58C175.373 144.608 175.432 144.651 175.479 144.704C175.526 144.758 175.561 144.821 175.581 144.89C175.601 144.959 175.606 145.031 175.595 145.102Z" fill="#221F1E"/>
<path d="M182.63 160.868L179.42 160.845C179.323 160.844 179.227 160.873 179.147 160.93C179.068 160.987 179.008 161.067 178.978 161.16L178.145 163.755C178.115 163.847 178.057 163.927 177.979 163.983C177.901 164.04 177.807 164.07 177.71 164.07L174.703 164.085C174.628 164.085 174.555 164.067 174.489 164.033C174.423 163.998 174.367 163.948 174.325 163.887C174.283 163.826 174.256 163.755 174.247 163.681C174.239 163.607 174.248 163.532 174.275 163.463L181.543 144.84C181.576 144.754 181.635 144.68 181.711 144.628C181.787 144.576 181.878 144.548 181.97 144.548L185.398 144.57C185.512 144.572 185.62 144.615 185.704 144.693C185.787 144.771 185.839 144.877 185.848 144.99L187.34 163.605C187.345 163.669 187.337 163.734 187.316 163.794C187.295 163.854 187.261 163.91 187.218 163.956C187.174 164.003 187.12 164.04 187.062 164.064C187.003 164.089 186.939 164.102 186.875 164.1L183.598 164.07C183.479 164.07 183.364 164.025 183.28 163.941C183.194 163.859 183.144 163.746 183.14 163.628L183.088 161.31C183.084 161.192 183.034 161.079 182.948 160.997C182.863 160.914 182.749 160.868 182.63 160.868ZM182.885 157.538L182.803 151.343C182.793 150.498 182.647 150.473 182.368 151.268C181.648 153.313 180.985 155.398 180.38 157.523C180.345 157.653 180.393 157.718 180.523 157.718L182.713 157.71C182.827 157.71 182.885 157.653 182.885 157.538Z" fill="#221F1E"/>
<path d="M148.751 174.498C148.384 174.424 148.101 174.016 147.963 173.362C147.826 172.708 147.844 171.864 148.015 171.014C148.1 170.593 148.22 170.183 148.368 169.808C148.516 169.433 148.689 169.101 148.877 168.829C149.065 168.557 149.266 168.352 149.466 168.224C149.666 168.097 149.863 168.05 150.044 168.087C150.411 168.161 150.694 168.57 150.832 169.223C150.97 169.876 150.951 170.721 150.78 171.571C150.695 171.992 150.575 172.402 150.427 172.777C150.28 173.152 150.106 173.485 149.918 173.756C149.73 174.028 149.53 174.233 149.329 174.361C149.129 174.488 148.933 174.535 148.751 174.498ZM149.031 173.73C149.131 173.746 149.241 173.696 149.353 173.584C149.465 173.472 149.578 173.3 149.685 173.078C149.792 172.855 149.891 172.587 149.977 172.288C150.062 171.989 150.133 171.666 150.184 171.336C150.235 171.006 150.265 170.676 150.274 170.365C150.283 170.054 150.27 169.768 150.235 169.525C150.2 169.28 150.145 169.082 150.072 168.941C149.998 168.801 149.909 168.721 149.809 168.705C149.709 168.689 149.599 168.739 149.488 168.851C149.375 168.963 149.263 169.135 149.155 169.357C149.048 169.579 148.949 169.848 148.864 170.147C148.778 170.446 148.708 170.77 148.657 171.1C148.606 171.43 148.575 171.759 148.566 172.07C148.557 172.381 148.57 172.666 148.606 172.911C148.64 173.155 148.696 173.353 148.768 173.494C148.842 173.635 148.931 173.715 149.031 173.73Z" fill="#221F1E"/>
<path d="M153.995 171.721C153.06 171.001 152.908 170.073 153.538 168.938C153.943 168.203 154.552 168.001 155.368 168.331C155.491 168.38 155.599 168.461 155.68 168.565C155.761 168.67 155.815 168.793 155.833 168.923C156.11 170.723 154.685 172.838 153.718 174.301C153.658 174.391 153.585 174.403 153.5 174.338L153.328 174.203C153.292 174.173 153.283 174.136 153.298 174.091C153.487 173.506 153.755 172.981 154.1 172.516C154.325 172.216 154.29 171.951 153.995 171.721ZM154.369 171.094C154.548 171.127 154.741 171.035 154.906 170.841C155.071 170.647 155.196 170.365 155.251 170.058C155.308 169.75 155.29 169.443 155.204 169.203C155.117 168.962 154.969 168.809 154.791 168.777C154.612 168.745 154.42 168.835 154.254 169.03C154.089 169.225 153.964 169.506 153.909 169.813C153.853 170.121 153.87 170.428 153.956 170.668C154.043 170.908 154.192 171.061 154.369 171.094Z" fill="#221F1E"/>
<path d="M159.312 170.888L159.56 170.903C160.085 170.933 160.102 171.045 159.612 171.24L158.982 171.488C158.712 171.593 158.56 171.79 158.525 172.08L158.277 174.15C158.274 174.179 158.265 174.206 158.25 174.229C158.235 174.253 158.215 174.273 158.192 174.289C158.168 174.304 158.141 174.314 158.113 174.317C158.085 174.32 158.057 174.317 158.03 174.308L157.76 174.21C157.635 174.16 157.585 174.07 157.61 173.94L158.42 168.818C158.45 168.608 158.56 168.453 158.75 168.353C159.22 168.108 159.693 168.115 160.167 168.375C160.497 168.555 160.48 168.693 160.115 168.788L159.41 168.968C159.065 169.058 158.892 169.281 158.892 169.635V170.438C158.892 170.718 159.033 170.868 159.312 170.888Z" fill="#221F1E"/>
<path d="M169.738 170.407C169.533 169.747 169.655 169.142 170.105 168.592C170.24 168.426 170.419 168.303 170.622 168.236C170.824 168.17 171.042 168.162 171.248 168.215C171.455 168.268 171.642 168.379 171.787 168.535C171.933 168.69 172.031 168.884 172.07 169.094C172.16 169.559 172.042 169.997 171.718 170.407C171.502 170.672 171.445 170.966 171.545 171.292C171.845 172.267 171.645 173.186 170.945 174.052C170.812 174.215 170.635 174.337 170.435 174.402C170.235 174.467 170.02 174.473 169.817 174.418C169.613 174.363 169.43 174.25 169.29 174.093C169.15 173.936 169.057 173.742 169.025 173.534C168.89 172.629 169.083 171.844 169.603 171.179C169.783 170.949 169.828 170.692 169.738 170.407ZM170.638 170.449C170.72 170.473 170.808 170.476 170.896 170.457C170.983 170.439 171.069 170.401 171.149 170.343C171.229 170.286 171.301 170.211 171.36 170.123C171.42 170.036 171.466 169.936 171.496 169.832C171.559 169.619 171.551 169.397 171.478 169.213C171.403 169.028 171.268 168.898 171.103 168.85C171.02 168.826 170.932 168.823 170.845 168.841C170.757 168.859 170.671 168.898 170.591 168.955C170.512 169.013 170.44 169.088 170.38 169.175C170.32 169.263 170.274 169.362 170.243 169.467C170.182 169.679 170.189 169.901 170.263 170.086C170.337 170.27 170.472 170.4 170.638 170.449ZM170.017 173.697C170.19 173.741 170.389 173.656 170.571 173.459C170.752 173.261 170.901 172.968 170.984 172.645C171.067 172.321 171.078 171.993 171.014 171.732C170.95 171.472 170.817 171.301 170.644 171.257C170.47 171.212 170.271 171.298 170.089 171.495C169.908 171.692 169.759 171.985 169.676 172.309C169.593 172.633 169.582 172.961 169.646 173.221C169.71 173.481 169.843 173.653 170.017 173.697Z" fill="#221F1E"/>
<path d="M174.852 171.299C175.122 172.09 174.97 172.934 174.395 173.834C174.025 174.415 173.485 174.56 172.775 174.269C172.548 174.179 172.365 174 172.269 173.774C172.172 173.548 172.167 173.292 172.257 173.062C172.717 171.877 172.987 170.712 173.067 169.567C173.12 168.742 173.787 167.932 174.695 168.187C174.823 168.226 174.94 168.296 175.033 168.392C175.126 168.488 175.193 168.606 175.227 168.734C175.407 169.4 175.308 170.039 174.927 170.654C174.869 170.751 174.831 170.859 174.819 170.97C174.806 171.082 174.817 171.194 174.852 171.299ZM173.868 170.507C174 170.549 174.153 170.499 174.297 170.369C174.44 170.24 174.561 170.04 174.633 169.814C174.669 169.703 174.691 169.588 174.699 169.477C174.708 169.366 174.701 169.261 174.681 169.167C174.66 169.073 174.625 168.994 174.579 168.932C174.533 168.87 174.476 168.827 174.411 168.807C174.28 168.765 174.126 168.815 173.983 168.944C173.84 169.075 173.719 169.274 173.647 169.499C173.611 169.611 173.589 169.726 173.58 169.837C173.572 169.948 173.579 170.054 173.599 170.147C173.62 170.24 173.655 170.321 173.7 170.382C173.747 170.444 173.804 170.486 173.868 170.507ZM173.367 173.642C173.55 173.692 173.758 173.619 173.946 173.438C174.134 173.258 174.286 172.985 174.369 172.68C174.453 172.375 174.461 172.063 174.391 171.812C174.321 171.56 174.18 171.392 173.997 171.342C173.815 171.292 173.607 171.365 173.419 171.546C173.231 171.726 173.079 171.999 172.995 172.304C172.911 172.609 172.904 172.922 172.974 173.172C173.044 173.423 173.185 173.592 173.367 173.642Z" fill="#221F1E"/>
<path d="M176.559 174.503C176.195 174.433 175.909 174.027 175.767 173.375C175.625 172.723 175.637 171.879 175.801 171.027C175.882 170.605 175.998 170.195 176.142 169.818C176.286 169.442 176.456 169.107 176.642 168.834C176.827 168.561 177.024 168.354 177.222 168.224C177.42 168.095 177.615 168.046 177.797 168.081C178.162 168.152 178.447 168.558 178.589 169.209C178.731 169.861 178.719 170.706 178.555 171.558C178.474 171.979 178.358 172.39 178.214 172.766C178.07 173.142 177.9 173.477 177.714 173.751C177.529 174.024 177.332 174.231 177.134 174.36C176.936 174.489 176.741 174.538 176.559 174.503ZM176.766 173.735C176.869 173.751 176.981 173.703 177.097 173.591C177.212 173.479 177.329 173.307 177.44 173.085C177.55 172.861 177.653 172.593 177.741 172.293C177.83 171.992 177.902 171.667 177.956 171.336C178.009 171.004 178.041 170.672 178.05 170.359C178.06 170.046 178.047 169.759 178.011 169.513C177.976 169.266 177.92 169.067 177.845 168.924C177.77 168.783 177.678 168.701 177.575 168.684C177.472 168.668 177.359 168.717 177.244 168.828C177.128 168.94 177.011 169.113 176.901 169.335C176.791 169.558 176.688 169.827 176.6 170.127C176.511 170.427 176.438 170.752 176.385 171.084C176.332 171.416 176.3 171.747 176.291 172.06C176.281 172.373 176.294 172.66 176.33 172.907C176.365 173.153 176.421 173.352 176.496 173.495C176.571 173.637 176.663 173.718 176.766 173.735Z" fill="#221F1E"/>
<path d="M186.425 171.525C185.969 172.285 185.69 173.063 185.585 173.858C185.564 174.043 185.462 174.143 185.277 174.158C185.192 174.168 185.107 174.171 185.022 174.165C184.922 174.16 184.874 174.108 184.88 174.008C184.9 173.543 184.897 173.121 184.872 172.74C184.777 171.49 184.527 171.458 184.122 172.643L183.762 173.685C183.672 173.955 183.497 174.145 183.237 174.255C183.097 174.315 182.95 174.343 182.795 174.338C182.459 174.338 182.275 174.171 182.24 173.835C182.215 173.545 182.092 173.305 181.872 173.115C181.692 172.96 181.502 172.945 181.302 173.07C180.972 173.271 180.772 173.575 180.702 173.985C180.682 174.115 180.607 174.175 180.477 174.165L180.222 174.158C180.027 174.148 179.962 174.051 180.027 173.865L181.88 168.66C181.934 168.505 182.039 168.405 182.195 168.36C182.33 168.321 182.447 168.34 182.547 168.42C182.742 168.57 182.825 168.771 182.795 169.02C182.665 170.1 182.639 171.141 182.72 172.14C182.84 173.52 183.13 173.558 183.59 172.253C183.97 171.178 184.285 170.05 184.535 168.87C184.585 168.61 184.742 168.471 185.007 168.45L185.202 168.435C185.362 168.42 185.44 168.493 185.435 168.653C185.41 169.173 185.345 169.768 185.24 170.438C185.195 170.698 185.237 170.955 185.367 171.21C185.527 171.535 185.672 171.528 185.802 171.188L186.875 168.413C186.905 168.338 186.922 168.3 186.927 168.3L187.182 168.33C187.382 168.351 187.477 168.46 187.467 168.66L187.257 174.053C187.252 174.228 187.169 174.285 187.01 174.225L186.74 174.135C186.655 174.105 186.62 174.045 186.635 173.955C186.745 173.151 186.767 172.36 186.702 171.585C186.677 171.285 186.584 171.265 186.425 171.525ZM181.737 171.135C181.472 171.345 181.334 171.595 181.325 171.885C181.289 172.63 181.505 172.713 181.97 172.133C182.275 171.758 182.287 171.315 182.007 170.805C181.952 170.7 181.887 170.695 181.812 170.79C181.772 170.841 181.765 170.903 181.79 170.978C181.805 171.043 181.787 171.096 181.737 171.135Z" fill="#221F1E"/>
<path d="M162.77 171.45C163.08 171.685 163.16 171.977 163.01 172.328C162.84 172.712 162.682 173.102 162.537 173.498C162.157 174.507 161.905 174.477 161.78 173.408C161.74 173.063 161.742 172.707 161.787 172.343C161.922 171.332 161.725 171.263 161.195 172.133C160.9 172.617 160.743 173.2 160.722 173.88C160.72 173.934 160.707 173.987 160.681 174.036C160.656 174.084 160.622 174.127 160.579 174.161C160.536 174.194 160.487 174.218 160.434 174.23C160.38 174.242 160.326 174.243 160.272 174.233L160.077 174.188C159.993 174.173 159.963 174.122 159.987 174.038L161.727 168.585C161.763 168.48 161.835 168.428 161.945 168.428H162.147C162.273 168.428 162.337 168.49 162.342 168.615L162.41 170.753C162.42 171.042 162.54 171.275 162.77 171.45Z" fill="#221F1E"/>
<path d="M164.338 174.209C164.338 174.231 164.329 174.252 164.314 174.268C164.298 174.284 164.277 174.292 164.255 174.292H164.233C164.006 174.292 163.788 174.025 163.626 173.549C163.464 173.074 163.372 172.429 163.37 171.757V170.872C163.369 170.539 163.39 170.21 163.432 169.901C163.474 169.594 163.537 169.315 163.615 169.079C163.694 168.844 163.788 168.657 163.891 168.53C163.994 168.402 164.105 168.337 164.218 168.337H164.24C164.251 168.337 164.262 168.339 164.272 168.344C164.281 168.347 164.291 168.353 164.299 168.361C164.306 168.369 164.312 168.378 164.317 168.388C164.32 168.398 164.323 168.409 164.323 168.419L164.338 174.209Z" fill="#221F1E"/>
</svg>
