<svg width="200" height="200" viewBox="0 0 200 200" fill="none" xmlns="http://www.w3.org/2000/svg">
<path d="M100.311 52.7539C141.486 20.7879 120.354 0 120.354 0C123.499 33.0461 86.3312 40.8489 76.3681 63.5575C69.57 79.0531 81.0238 92.6206 100.297 109.721C98.5931 105.934 95.965 102.254 93.305 98.5281C84.2306 85.8206 74.7781 72.5825 100.311 52.7539Z" fill="#E76F00"/>
<path d="M106.884 116.731C106.884 116.731 119.272 106.737 109.462 95.6302C76.2069 57.9493 145.833 40.8491 145.833 40.8491C103.323 61.3283 109.669 73.4839 120.354 88.2514C131.794 104.086 106.884 116.731 106.884 116.731Z" fill="#E76F00"/>
<path d="M143.356 146.535C181.514 127.036 163.872 108.299 151.558 110.823C148.539 111.441 147.193 111.976 147.193 111.976C147.193 111.976 148.314 110.25 150.454 109.503C174.816 101.081 193.551 134.343 142.589 147.518C142.589 147.518 143.18 146.999 143.356 146.535Z" fill="#5382A1"/>
<path d="M63.9562 121.856C40.082 118.721 77.0469 110.087 77.0469 110.087C77.0469 110.087 62.6919 109.135 45.037 117.527C24.1611 127.457 96.6756 131.974 134.212 122.265C138.115 119.645 143.509 117.374 143.509 117.374C143.509 117.374 128.148 120.071 112.851 121.34C94.1325 122.882 74.0369 123.183 63.9562 121.856Z" fill="#5382A1"/>
<path d="M73.04 140.474C59.7265 139.12 68.4438 132.774 68.4438 132.774C33.9936 144.018 87.6113 156.769 135.749 142.926C130.632 141.153 127.379 137.908 127.379 137.908C103.852 142.363 90.2563 142.221 73.04 140.474Z" fill="#5382A1"/>
<path d="M78.8406 160.62C65.5375 159.116 73.3094 154.671 73.3094 154.671C42.0371 163.264 92.3306 181.016 132.146 164.236C125.624 161.742 120.955 158.863 120.955 158.863C103.194 162.168 94.9569 162.428 78.8406 160.62Z" fill="#5382A1"/>
<path d="M162.117 170.867C162.117 170.867 167.868 175.527 155.783 179.132C132.801 185.979 60.1308 188.046 39.9434 179.406C32.6865 176.301 46.2952 171.993 50.5759 171.089C55.0404 170.137 57.5916 170.314 57.5916 170.314C49.5212 164.724 5.42806 181.292 35.1944 186.037C116.372 198.982 183.173 180.207 162.117 170.867Z" fill="#5382A1"/>
<path d="M175 181.049C173.668 198.092 117.423 201.677 80.7962 199.371C56.902 197.864 52.1132 194.099 52.0432 194.044C74.9119 197.751 113.468 198.426 144.73 192.641C172.439 187.51 175 181.049 175 181.049Z" fill="#5382A1"/>
</svg>
