<svg width="200" height="200" viewBox="0 0 200 200" fill="none" xmlns="http://www.w3.org/2000/svg">
<g clip-path="url(#clip0_9_126)">
<path d="M100 200C155.228 200 200 155.228 200 100C200 44.7715 155.228 0 100 0C44.7715 0 0 44.7715 0 100C0 155.228 44.7715 200 100 200Z" fill="#F2CF61"/>
<path d="M170.231 170.18C170.128 169.912 170.016 169.65 169.909 169.384C169.809 169.123 169.702 168.866 169.597 168.606C169.489 168.325 169.372 168.053 169.263 167.777C169.159 167.508 169.045 167.244 168.939 166.977C168.836 166.708 168.722 166.442 168.616 166.177C168.513 165.908 168.398 165.642 168.292 165.375C168.189 165.106 168.075 164.842 167.969 164.575C167.866 164.306 167.752 164.042 167.645 163.773C167.542 163.505 167.428 163.242 167.322 162.973C167.219 162.705 167.106 162.441 166.998 162.173C166.895 161.906 166.784 161.644 166.678 161.378C166.575 161.105 166.459 160.839 166.352 160.57C166.248 160.302 166.136 160.037 166.028 159.77C165.925 159.502 165.813 159.237 165.705 158.97C165.602 158.702 165.489 158.436 165.381 158.17C165.278 157.902 165.166 157.636 165.058 157.369C164.959 157.111 164.85 156.855 164.747 156.598C164.642 156.317 164.523 156.045 164.414 155.769C164.311 155.5 164.197 155.234 164.091 154.969C163.988 154.7 163.875 154.437 163.767 154.172C163.666 153.9 163.55 153.634 163.444 153.366C163.341 153.097 163.227 152.831 163.12 152.566C163.017 152.297 162.903 152.031 162.797 151.764C162.694 151.495 162.58 151.231 162.473 150.964C162.37 150.695 162.256 150.431 162.15 150.162C162.047 149.894 161.933 149.631 161.827 149.363C161.723 149.094 161.609 148.83 161.503 148.562C161.4 148.294 161.286 148.03 161.18 147.762C161.077 147.494 160.966 147.231 160.858 146.966C160.755 146.694 160.639 146.428 160.533 146.159C160.43 145.891 160.316 145.627 160.209 145.359C160.106 145.091 159.992 144.825 159.886 144.559C159.786 144.3 159.678 144.044 159.575 143.787C159.469 143.506 159.352 143.234 159.241 142.958C159.139 142.689 159.025 142.425 158.917 142.158C158.816 141.889 158.702 141.623 158.594 141.358C158.492 141.089 158.378 140.823 158.27 140.556C158.169 140.287 158.055 140.023 157.947 139.756C157.845 139.489 157.733 139.227 157.627 138.961C157.522 138.689 157.408 138.423 157.3 138.153C157.198 137.884 157.084 137.62 156.977 137.353C156.875 137.084 156.761 136.82 156.653 136.552C156.552 136.283 156.438 136.02 156.33 135.752C156.228 135.483 156.114 135.219 156.006 134.952C155.905 134.683 155.791 134.419 155.683 134.152C155.581 133.883 155.467 133.617 155.361 133.352C155.258 133.083 155.144 132.817 155.038 132.55C154.939 132.292 154.83 132.039 154.727 131.786C154.62 131.503 154.503 131.23 154.391 130.95C154.289 130.681 154.175 130.416 154.067 130.15C153.966 129.88 153.852 129.616 153.744 129.348C153.642 129.08 153.528 128.816 153.42 128.548C153.319 128.278 153.205 128.016 153.097 127.747C152.995 127.478 152.881 127.216 152.773 126.947C152.672 126.678 152.558 126.414 152.45 126.147C152.348 125.878 152.236 125.614 152.127 125.347C152.025 125.078 151.913 124.812 151.803 124.547C151.702 124.278 151.589 124.016 151.483 123.75C151.38 123.478 151.266 123.212 151.156 122.944C151.055 122.675 150.942 122.409 150.834 122.144C150.731 121.875 150.619 121.609 150.511 121.342C150.408 121.073 150.295 120.809 150.188 120.542C150.089 120.283 149.978 120.028 149.877 119.77C149.769 119.492 149.652 119.217 149.542 118.941C149.439 118.672 149.325 118.408 149.219 118.141C149.116 117.872 149.002 117.608 148.895 117.339C148.792 117.073 148.681 116.811 148.575 116.545C148.472 116.273 148.355 116.006 148.248 115.737C148.145 115.469 148.031 115.205 147.925 114.937C147.822 114.667 147.709 114.405 147.602 114.136C147.498 113.867 147.386 113.605 147.278 113.336C147.175 113.067 147.063 112.803 146.955 112.536C146.852 112.267 146.739 112.003 146.631 111.736C146.528 111.467 146.416 111.202 146.308 110.936C146.205 110.666 146.092 110.402 145.984 110.134C145.881 109.866 145.769 109.602 145.661 109.334C145.558 109.067 145.447 108.805 145.341 108.539C145.241 108.277 145.131 108.02 145.027 107.761C144.922 107.48 144.803 107.208 144.694 106.931C144.591 106.662 144.477 106.397 144.37 106.131C144.267 105.863 144.153 105.597 144.047 105.331C143.944 105.061 143.83 104.797 143.723 104.53C143.62 104.261 143.506 103.997 143.4 103.73C143.297 103.459 143.183 103.197 143.077 102.928C140.231 95.5562 135.792 89.0453 131.684 83.9641C131.659 83.9062 131.63 83.8516 131.602 83.7953C131.498 83.5281 131.395 83.2578 131.278 82.9953C131.175 82.7281 131.072 82.4562 130.955 82.1953C130.852 81.9281 130.748 81.6578 130.631 81.3953C130.528 81.1281 130.427 80.8563 130.308 80.5953C130.205 80.3281 130.103 80.0594 129.984 79.7984C129.881 79.5281 129.78 79.2578 129.661 78.9937C129.559 78.7297 129.459 78.4641 129.344 78.2062C129.239 77.9328 129.136 77.6594 129.017 77.3922C128.913 77.125 128.809 76.8531 128.694 76.5922C128.589 76.325 128.486 76.0547 128.37 75.7922C128.266 75.525 128.163 75.2531 128.047 74.9922C127.942 74.725 127.839 74.4547 127.723 74.1922C127.619 73.925 127.516 73.6531 127.4 73.3922C127.295 73.125 127.192 72.8547 127.077 72.5922C126.972 72.325 126.872 72.0563 126.753 71.7953C126.648 71.5266 126.545 71.2547 126.43 70.9906C126.327 70.7234 126.222 70.4531 126.106 70.1906C126.003 69.9234 125.9 69.6516 125.783 69.3906C125.68 69.1234 125.577 68.8531 125.459 68.5906C125.356 68.3234 125.253 68.0516 125.136 67.7906C125.033 67.5234 124.93 67.2531 124.813 66.9906C124.709 66.7266 124.611 66.4609 124.495 66.2031C124.389 65.9297 124.286 65.6562 124.167 65.3891C124.063 65.1219 123.961 64.85 123.844 64.5891C123.739 64.3219 123.638 64.0516 123.52 63.7891C123.416 63.5219 123.316 63.2531 123.197 62.9922C123.092 62.7234 122.992 62.4516 122.873 62.1875C122.769 61.9203 122.667 61.65 122.552 61.3875C122.445 61.1203 122.344 60.8484 122.228 60.5875C122.122 60.3203 122.02 60.05 121.905 59.7875C121.8 59.5203 121.697 59.2484 121.581 58.9875C121.477 58.7203 121.373 58.45 121.258 58.1875C121.153 57.9203 121.05 57.6484 120.934 57.3875C120.83 57.1203 120.727 56.85 120.611 56.5875C120.506 56.3203 120.403 56.0484 120.288 55.7875C120.183 55.5203 120.083 55.2516 119.964 54.9906C119.861 54.725 119.763 54.4578 119.647 54.2C119.541 53.9281 119.436 53.6531 119.317 53.3859C119.214 53.1187 119.113 52.8484 118.994 52.5859C118.891 52.3187 118.789 52.0469 118.67 51.7859C118.567 51.5188 118.466 51.2484 118.347 50.9859C118.244 50.7187 118.142 50.4469 118.025 50.1859C117.92 49.9187 117.819 49.6484 117.702 49.3859C115.163 42.9 108.673 38.2734 101.045 38.2734C91.2094 38.2734 84.0031 45.9891 83.2344 55.4156C83.036 57.8406 84.8859 73.4625 85.3563 80.9047C76.4563 89.2391 61.2313 109.973 62.0547 129.445L62.3203 129.761C55.5297 131.592 45.8313 141.122 48.8297 148.075C48.8922 148.219 48.9688 148.355 49.0344 148.497C49.0797 148.622 49.1 148.753 49.1531 148.877C49.2156 149.022 49.2922 149.156 49.3578 149.3C49.4031 149.425 49.4235 149.556 49.4766 149.678C49.5391 149.823 49.6156 149.959 49.6813 150.102C49.725 150.227 49.7469 150.358 49.8 150.481C49.8625 150.625 49.9391 150.761 50.0047 150.903C50.0485 151.028 50.0703 151.159 50.1235 151.283C50.186 151.428 50.2625 151.562 50.3281 151.706C50.3719 151.831 50.3938 151.962 50.4469 152.084C50.5094 152.228 50.586 152.366 50.6516 152.508C50.6953 152.633 50.7172 152.764 50.7703 152.887C50.8297 153.028 50.9063 153.161 50.9703 153.3C51.0156 153.428 51.0375 153.561 51.0922 153.689C51.1531 153.831 51.2297 153.969 51.2969 154.109C51.3422 154.237 51.3625 154.369 51.4156 154.491C51.4766 154.634 51.5547 154.772 51.6203 154.914C51.6656 155.039 51.686 155.17 51.7391 155.294C51.8 155.438 51.8781 155.573 51.9438 155.716C51.9891 155.841 52.0094 155.972 52.0625 156.095C52.1235 156.239 52.2 156.375 52.2672 156.519C52.3125 156.644 52.3328 156.775 52.386 156.897C52.4469 157.041 52.5235 157.178 52.5906 157.32C52.636 157.445 52.6547 157.577 52.7094 157.7C52.7703 157.844 52.8469 157.98 52.9141 158.122C52.9594 158.247 52.9781 158.378 53.0328 158.502C53.0938 158.645 53.1703 158.781 53.2375 158.925C53.2828 159.05 53.3016 159.181 53.3563 159.303C53.4172 159.447 53.4938 159.584 53.561 159.727C53.6063 159.85 53.625 159.981 53.6797 160.106C53.7406 160.25 53.8172 160.386 53.8844 160.528C53.9297 160.653 53.9485 160.784 54.0031 160.908C54.0641 161.052 54.1406 161.187 54.2078 161.331C54.2516 161.456 54.2719 161.588 54.3266 161.709C54.3875 161.853 54.4641 161.987 54.5313 162.131C54.575 162.256 54.5953 162.388 54.65 162.512C54.711 162.656 54.7875 162.792 54.8547 162.934C54.8985 163.059 54.9188 163.191 54.9735 163.314C55.0344 163.458 55.111 163.594 55.1781 163.737C55.2219 163.861 55.2422 163.992 55.2969 164.116C55.3578 164.259 55.4344 164.397 55.5016 164.537C55.5453 164.662 55.5656 164.794 55.6188 164.919C55.6797 165.059 55.7547 165.191 55.8188 165.331C55.8656 165.459 55.886 165.592 55.9406 165.72C56.0031 165.864 56.0813 166 56.1453 166.142C56.1906 166.267 56.2125 166.398 56.2641 166.522C56.3266 166.666 56.4047 166.803 56.4688 166.944C56.5141 167.069 56.536 167.2 56.5875 167.325C56.65 167.469 56.7266 167.603 56.7922 167.747C56.8375 167.872 56.8594 168.003 56.911 168.127C56.9735 168.27 57.05 168.406 57.1156 168.548C57.161 168.673 57.1813 168.805 57.2344 168.928C57.2969 169.072 57.3735 169.209 57.4391 169.35C57.4844 169.475 57.5047 169.606 57.5578 169.731C57.6203 169.875 57.6969 170.009 57.7625 170.153C57.8078 170.278 57.8281 170.409 57.8813 170.531C57.9422 170.675 58.0188 170.811 58.086 170.953C58.1313 171.08 58.1516 171.211 58.2047 171.334C58.2672 171.478 58.3438 171.614 58.4094 171.756C58.4547 171.881 58.475 172.012 58.5281 172.137C58.5906 172.281 58.6672 172.416 58.7328 172.559C58.7781 172.684 58.7985 172.816 58.8516 172.938C58.9141 173.083 58.9906 173.219 59.0563 173.361C59.1016 173.486 59.1219 173.617 59.175 173.741C59.2375 173.884 59.3141 174.02 59.3797 174.162C59.425 174.287 59.4453 174.419 59.4985 174.542C59.561 174.688 59.6375 174.822 59.7031 174.966C59.7485 175.091 59.7688 175.222 59.8219 175.344C59.8844 175.489 59.961 175.625 60.0266 175.767C60.0719 175.892 60.0922 176.023 60.1453 176.147C60.2078 176.291 60.2844 176.427 60.35 176.569C60.3953 176.694 60.4156 176.825 60.4688 176.948C60.5297 177.091 60.6047 177.222 60.6688 177.363C60.7156 177.491 60.736 177.622 60.7891 177.75C60.8531 177.894 60.9297 178.031 60.9953 178.173C61.0391 178.298 61.061 178.43 61.1125 178.553C61.1735 178.695 61.2516 178.833 61.3188 178.973C61.3625 179.1 61.3844 179.231 61.436 179.355C61.5 179.5 61.5766 179.634 61.6422 179.778C61.686 179.903 61.7078 180.034 61.7594 180.156C61.8235 180.3 61.9 180.438 61.9656 180.58C62.0094 180.705 62.0313 180.836 62.0828 180.959C62.1469 181.103 62.2235 181.239 62.2875 181.381C62.3328 181.506 62.3547 181.637 62.4063 181.761C62.4703 181.905 62.5469 182.041 62.611 182.184C62.6563 182.309 62.6781 182.441 62.7297 182.562C62.7938 182.706 62.8703 182.844 62.9344 182.986C62.9797 183.111 63.0016 183.242 63.0531 183.366C63.1172 183.509 63.1938 183.645 63.2578 183.787C63.3031 183.912 63.325 184.044 63.3766 184.167C63.4406 184.311 63.5172 184.447 63.5813 184.591C63.6266 184.716 63.6485 184.847 63.7 184.969C63.7641 185.112 63.8406 185.25 63.9047 185.392C63.95 185.516 63.9719 185.647 64.0235 185.772C64.0875 185.916 64.1641 186.052 64.2281 186.194C64.2735 186.319 64.2953 186.45 64.3469 186.573C64.4078 186.716 64.4844 186.852 64.5516 186.994C64.5969 187.122 64.6188 187.253 64.6703 187.375C64.7344 187.519 64.811 187.656 64.875 187.797C64.9203 187.922 64.9422 188.053 64.9938 188.178C65.0563 188.322 65.1344 188.458 65.1985 188.6C65.2438 188.725 65.2656 188.856 65.3172 188.98C65.3781 189.12 65.4547 189.253 65.5188 189.392C65.5641 189.52 65.586 189.653 65.6391 189.781C65.7016 189.925 65.7781 190.062 65.8453 190.203C65.8891 190.328 65.9094 190.459 65.9625 190.584C66.025 190.728 66.1016 190.864 66.1688 191.006C66.2125 191.131 66.2328 191.262 66.286 191.386C66.3485 191.53 66.425 191.666 66.4922 191.808C66.536 191.933 66.5563 192.064 66.6094 192.188C66.6719 192.331 66.7485 192.469 66.8141 192.609C66.8594 192.734 66.8797 192.866 66.9328 192.991C66.9953 193.134 67.0719 193.269 67.1375 193.412C67.1828 193.537 67.2031 193.669 67.2563 193.792C67.3188 193.936 67.3953 194.072 67.461 194.214C67.5063 194.339 67.5266 194.47 67.5797 194.594C67.5953 194.63 67.6141 194.664 67.6313 194.7C77.7828 198.086 88.6641 200 100 200C127.517 200 152.439 188.88 170.52 170.892C170.425 170.653 170.328 170.416 170.231 170.18Z" fill="#E6C45C"/>
<path d="M84.9594 156.851C91.1422 159.467 107.053 161.228 124.038 154.926L144.842 127.208C152.4 99.5937 122.584 74.8233 121.636 72.789C120.7 70.7608 118.844 55.4249 118.844 55.4249C118.844 45.9608 110.869 38.2827 101.033 38.2827C91.1969 38.2827 83.9906 45.9983 83.2219 55.4249C83.0235 57.8499 84.8735 73.4718 85.3438 80.914C76.4438 89.2483 61.2188 109.983 62.0422 129.453L84.9594 156.851Z" fill="#263740"/>
<path d="M121.641 72.7875C120.703 70.7594 118.845 55.4234 118.845 55.4234C118.845 45.9594 110.87 38.2812 101.036 38.2812C99.9641 38.2812 98.9297 38.3891 97.9281 38.5641C106.263 39.9953 112.6 46.9938 112.6 55.425C112.6 55.425 114.456 70.7609 115.392 72.7891C116.338 74.8219 146.155 99.5938 138.598 127.208L117.792 154.925C110.498 157.63 103.413 158.845 97.2 159.148C104.652 159.52 114.158 158.595 124.042 154.925L144.845 127.208C152.4 99.5922 122.584 74.8219 121.641 72.7875Z" fill="#1E2C33"/>
<path d="M125.853 160.464C121.881 153.644 122.431 131.708 127.084 126.677C133.609 124.706 150.177 125.081 151.564 133.973C153.744 147.855 135.48 163.933 125.853 160.464Z" fill="#F5F5F5"/>
<path d="M151.564 133.975C150.522 127.295 140.912 125.42 133.43 125.739C140.231 126.02 147.537 128.198 148.439 133.975C150.309 145.889 137.125 159.408 127.261 160.811C137.145 162.42 153.641 147.206 151.564 133.975Z" fill="#E6E6E6"/>
<path d="M85.0594 157.949C84.7969 150.133 74.3453 132.066 65.8516 129.655C59.8094 127.759 45.2344 139.77 48.8203 148.084C54.4172 161.041 78.6781 165.706 85.0594 157.949Z" fill="#F5F5F5"/>
<path d="M65.8516 129.655C64.9719 129.378 63.9109 129.405 62.7531 129.661C71.2422 132.103 81.6719 150.139 81.9344 157.949C80.0578 160.231 76.6281 161.431 72.5875 161.667C77.9531 161.969 82.7125 160.802 85.0594 157.949C84.7969 150.131 74.3422 132.064 65.8516 129.655Z" fill="#E6E6E6"/>
<path d="M93.611 73.0468C94.7922 71.4843 98.3782 69.1514 101.758 67.8014C105.469 67.3218 109.309 68.3593 111.423 69.2671C112.825 77.0186 108.073 75.1952 103.581 82.6827C96.475 78.3311 94.5969 78.4499 93.611 73.0468Z" fill="#FFD464"/>
</g>
<defs>
<clipPath id="clip0_9_126">
<rect width="200" height="200" fill="white"/>
</clipPath>
</defs>
</svg>
