<svg width="250" height="154" viewBox="0 0 250 154" fill="none" xmlns="http://www.w3.org/2000/svg">
<path d="M123.643 153.085C122.796 153.085 122.005 152.86 121.27 152.464L113.754 148C112.624 147.378 113.189 147.152 113.529 147.039C115.054 146.531 115.337 146.417 116.919 145.514C117.088 145.4 117.315 145.457 117.484 145.57L123.248 149.017C123.474 149.13 123.757 149.13 123.926 149.017L146.473 135.963C146.699 135.85 146.813 135.624 146.813 135.342V109.291C146.813 109.008 146.699 108.782 146.473 108.669L123.926 95.6718C123.7 95.5584 123.417 95.5584 123.248 95.6718L100.701 108.669C100.475 108.782 100.361 109.064 100.361 109.29V135.341C100.361 135.568 100.475 135.85 100.701 135.963L106.86 139.523C110.194 141.218 112.285 139.241 112.285 137.263V111.551C112.285 111.212 112.568 110.873 112.963 110.873H115.845C116.184 110.873 116.523 111.155 116.523 111.551V137.263C116.523 141.727 114.093 144.327 109.855 144.327C108.555 144.327 107.538 144.327 104.656 142.913L98.7228 139.523C97.2535 138.676 96.3495 137.093 96.3495 135.398V109.347C96.3495 107.652 97.2535 106.069 98.7228 105.222L121.27 92.168C122.683 91.3769 124.605 91.3769 126.017 92.168L148.564 105.222C150.033 106.069 150.938 107.652 150.938 109.347V135.398C150.938 137.093 150.033 138.676 148.564 139.523L126.017 152.577C125.282 152.916 124.434 153.085 123.643 153.085ZM130.594 135.172C120.705 135.172 118.671 130.651 118.671 126.809C118.671 126.469 118.953 126.131 119.349 126.131H122.287C122.626 126.131 122.909 126.356 122.909 126.696C123.361 129.691 124.661 131.16 130.651 131.16C135.397 131.16 137.432 130.086 137.432 127.543C137.432 126.074 136.867 125.001 129.464 124.266C123.304 123.644 119.462 122.288 119.462 117.372C119.462 112.794 123.305 110.081 129.747 110.081C136.98 110.081 140.54 112.568 140.992 117.993C140.992 118.163 140.936 118.332 140.823 118.502C140.709 118.614 140.54 118.727 140.371 118.727H137.432C137.149 118.727 136.867 118.502 136.811 118.219C136.132 115.111 134.38 114.094 129.747 114.094C124.548 114.094 123.926 115.902 123.926 117.258C123.926 118.897 124.661 119.406 131.668 120.31C138.619 121.214 141.896 122.514 141.896 127.373C141.84 132.346 137.771 135.172 130.594 135.172Z" fill="#539E43"/>
<path d="M53.6845 51.1983C53.6845 50.1813 53.1193 49.2201 52.2152 48.7116L28.255 34.9234C27.859 34.697 27.4072 34.584 26.9554 34.5273H26.729C26.2773 34.5273 25.825 34.697 25.4294 34.9234L1.46927 48.7116C0.564729 49.2201 0 50.1808 0 51.1983L0.0567174 88.2685C0.0567174 88.777 0.339326 89.2855 0.79111 89.5119C1.24338 89.7945 1.80811 89.7945 2.20416 89.5119L16.4446 81.3744C17.3487 80.8659 17.9139 79.9051 17.9139 78.8881V61.5395C17.9139 60.5225 18.4786 59.5617 19.3832 59.0532L25.4294 55.5494C25.8817 55.2668 26.3902 55.1534 26.8987 55.1534C27.4072 55.1534 27.9157 55.2668 28.3118 55.5494L34.358 59.0532C35.2626 59.5617 35.8273 60.522 35.8273 61.5395V78.8881C35.8273 79.9051 36.3925 80.8659 37.2966 81.3744L51.537 89.5119C51.9893 89.7945 52.554 89.7945 53.0063 89.5119C53.4586 89.2855 53.7412 88.777 53.7412 88.2685L53.6845 51.1983ZM168.852 0.169785C168.4 -0.0565952 167.835 -0.0565952 167.439 0.169785C166.987 0.452395 166.704 0.904178 166.704 1.41268V38.1445C166.704 38.4834 166.535 38.8222 166.196 39.0486C165.857 39.2178 165.517 39.2178 165.179 39.0486L159.189 35.6015C158.749 35.3515 158.253 35.22 157.747 35.22C157.242 35.22 156.745 35.3515 156.306 35.6015L132.346 49.4464C131.442 49.9549 130.877 50.9157 130.877 51.9327V79.5658C130.877 80.5828 131.442 81.5441 132.346 82.0526L156.306 95.8975C156.745 96.1476 157.242 96.279 157.747 96.279C158.253 96.279 158.749 96.1476 159.189 95.8975L183.149 82.0526C184.053 81.5441 184.618 80.5833 184.618 79.5658V10.6806C184.618 9.60688 184.053 8.64659 183.149 8.1376L168.852 0.169785ZM166.648 70.4681C166.648 70.7507 166.535 70.9766 166.309 71.0895L158.115 75.8362C158 75.892 157.875 75.921 157.747 75.921C157.62 75.921 157.494 75.892 157.38 75.8362L149.186 71.0895C148.96 70.9766 148.847 70.694 148.847 70.4681V60.9743C148.847 60.6916 148.96 60.4658 149.186 60.3528L157.38 55.6057C157.494 55.5498 157.62 55.5208 157.747 55.5208C157.875 55.5208 158 55.5498 158.115 55.6057L166.309 60.3528C166.535 60.4653 166.648 60.7484 166.648 60.9743V70.4681ZM248.587 60.7484C249.492 60.2399 250 59.2791 250 58.2616V51.5372C250 50.5202 249.435 49.5594 248.587 49.0509L224.796 35.2627C224.357 35.0127 223.861 34.8813 223.356 34.8813C222.85 34.8813 222.354 35.0127 221.915 35.2627L197.954 49.1071C197.05 49.6156 196.485 50.5764 196.485 51.5939V79.227C196.485 80.244 197.05 81.2048 197.954 81.7133L221.745 95.2756C222.65 95.7841 223.723 95.7841 224.571 95.2756L238.98 87.252C239.432 87.0256 239.715 86.5171 239.715 86.0086C239.715 85.5001 239.432 84.9916 238.98 84.7652L214.907 70.9203C214.455 70.6382 214.173 70.1859 214.173 69.6774V61.0315C214.173 60.523 214.455 60.0145 214.907 59.7881L222.423 55.4932C222.643 55.3548 222.898 55.2813 223.158 55.2813C223.418 55.2813 223.672 55.3548 223.892 55.4932L231.408 59.7881C231.86 60.0707 232.143 60.5225 232.143 61.0315V67.8126C232.143 68.3211 232.425 68.8296 232.877 69.0555C233.33 69.3381 233.894 69.3381 234.346 69.0555L248.587 60.7484Z" fill="white"/>
<path d="M222.988 59.4479C223.072 59.3927 223.17 59.3633 223.271 59.3633C223.371 59.3633 223.469 59.3927 223.553 59.4479L228.13 62.1038C228.3 62.2163 228.413 62.386 228.413 62.6123V67.9242C228.413 68.1501 228.3 68.3198 228.13 68.4327L223.553 71.0887C223.469 71.1439 223.371 71.1733 223.271 71.1733C223.17 71.1733 223.072 71.1439 222.988 71.0887L218.411 68.4327C218.241 68.3198 218.128 68.1501 218.128 67.9242V62.6123C218.128 62.386 218.241 62.2163 218.411 62.1038L222.988 59.4479Z" fill="#539E43"/>
<path d="M93.75 35.376C93.311 35.1261 92.8144 34.9946 92.3091 34.9946C91.8039 34.9946 91.3073 35.1261 90.8682 35.376L67.0777 49.107C66.1732 49.6155 65.6647 50.5763 65.6647 51.5933V79.1139C65.6647 80.1309 66.2299 81.0917 67.0777 81.6002L90.8682 95.3322C91.3073 95.5821 91.8039 95.7136 92.3091 95.7136C92.8144 95.7136 93.311 95.5821 93.75 95.3322L117.541 81.6002C118.445 81.0917 118.954 80.1309 118.954 79.1139V51.5938C118.954 50.5768 118.388 49.616 117.541 49.1075L93.75 35.376Z" fill="url(#paint0_linear_9_100)"/>
<mask id="mask0_9_100" style="mask-type:luminance" maskUnits="userSpaceOnUse" x="65" y="34" width="54" height="62">
<path d="M93.75 35.3765C93.311 35.1266 92.8144 34.9951 92.3091 34.9951C91.8039 34.9951 91.3073 35.1266 90.8682 35.3765L67.0777 49.1075C66.1732 49.616 65.6647 50.5768 65.6647 51.5938V79.1144C65.6647 80.1314 66.2299 81.0922 67.0777 81.6007L90.8682 95.3327C91.3073 95.5826 91.8039 95.714 92.3091 95.714C92.8144 95.714 93.311 95.5826 93.75 95.3327L117.541 81.6007C118.445 81.0922 118.954 80.1314 118.954 79.1144V51.5943C118.954 50.5773 118.388 49.6165 117.541 49.108L93.75 35.3765Z" fill="white"/>
</mask>
<g mask="url(#mask0_9_100)">
<path d="M117.597 49.1088L93.6937 35.3773C93.4589 35.2587 93.2127 35.1641 92.9589 35.0947L66.1731 80.9811C66.395 81.2519 66.663 81.4815 66.9647 81.6592L90.8681 95.3912C91.5463 95.7867 92.3374 95.8997 93.0718 95.6733L118.219 49.6745C118.049 49.4486 117.823 49.278 117.597 49.1088Z" fill="url(#paint1_linear_9_100)"/>
</g>
<mask id="mask1_9_100" style="mask-type:luminance" maskUnits="userSpaceOnUse" x="65" y="34" width="54" height="62">
<path d="M93.75 35.3765C93.311 35.1266 92.8144 34.9951 92.3091 34.9951C91.8039 34.9951 91.3073 35.1266 90.8682 35.3765L67.0777 49.1075C66.1732 49.616 65.6647 50.5768 65.6647 51.5938V79.1144C65.6647 80.1314 66.2299 81.0922 67.0777 81.6007L90.8682 95.3327C91.3073 95.5826 91.8039 95.714 92.3091 95.714C92.8144 95.714 93.311 95.5826 93.75 95.3327L117.541 81.6007C118.445 81.0922 118.954 80.1314 118.954 79.1144V51.5943C118.954 50.5773 118.388 49.6165 117.541 49.108L93.75 35.3765Z" fill="white"/>
</mask>
<g mask="url(#mask1_9_100)">
<path fill-rule="evenodd" clip-rule="evenodd" d="M117.654 81.6008C118.332 81.2052 118.84 80.5271 119.067 79.7927L92.8452 35.0368C92.167 34.9238 91.4321 34.9801 90.8112 35.3756L67.0769 49.0514L92.6755 95.7283C93.0478 95.6674 93.4094 95.5532 93.7492 95.3895L117.653 81.6013L117.654 81.6008Z" fill="url(#paint2_linear_9_100)"/>
<path fill-rule="evenodd" clip-rule="evenodd" d="M117.654 81.6012L93.8064 95.3331C93.4697 95.5048 93.1069 95.6193 92.7327 95.672L93.1849 96.5198L119.631 81.2061V80.8668L118.953 79.7363C118.84 80.5274 118.332 81.2056 117.654 81.6012Z" fill="url(#paint3_linear_9_100)"/>
<path fill-rule="evenodd" clip-rule="evenodd" d="M117.654 81.6012L93.8064 95.3331C93.4697 95.5048 93.1069 95.6193 92.7327 95.672L93.1849 96.5198L119.631 81.2061V80.8668L118.953 79.7363C118.84 80.5274 118.332 81.2056 117.654 81.6012Z" fill="url(#paint4_linear_9_100)"/>
</g>
<defs>
<linearGradient id="paint0_linear_9_100" x1="3699.36" y1="1096.79" x2="1091.69" y2="5194.21" gradientUnits="userSpaceOnUse">
<stop stop-color="#41873F"/>
<stop offset="0.3288" stop-color="#418B3D"/>
<stop offset="0.6352" stop-color="#419637"/>
<stop offset="0.9319" stop-color="#3FA92D"/>
<stop offset="1" stop-color="#3FAE2A"/>
</linearGradient>
<linearGradient id="paint1_linear_9_100" x1="2318.57" y1="3383.52" x2="8849.35" y2="-164.677" gradientUnits="userSpaceOnUse">
<stop offset="0.1376" stop-color="#41873F"/>
<stop offset="0.4032" stop-color="#54A044"/>
<stop offset="0.7136" stop-color="#66B848"/>
<stop offset="0.9081" stop-color="#6CC04A"/>
</linearGradient>
<linearGradient id="paint2_linear_9_100" x1="-161.106" y1="3071.95" x2="5343.99" y2="3071.95" gradientUnits="userSpaceOnUse">
<stop offset="0.09192" stop-color="#6CC04A"/>
<stop offset="0.2864" stop-color="#66B848"/>
<stop offset="0.5968" stop-color="#54A044"/>
<stop offset="0.8624" stop-color="#41873F"/>
</linearGradient>
<linearGradient id="paint3_linear_9_100" x1="-2700.99" y1="923.525" x2="2804.04" y2="923.525" gradientUnits="userSpaceOnUse">
<stop offset="0.09192" stop-color="#6CC04A"/>
<stop offset="0.2864" stop-color="#66B848"/>
<stop offset="0.5968" stop-color="#54A044"/>
<stop offset="0.8624" stop-color="#41873F"/>
</linearGradient>
<linearGradient id="paint4_linear_9_100" x1="3606.05" y1="-3462.73" x2="2211.41" y2="3845.14" gradientUnits="userSpaceOnUse">
<stop stop-color="#41873F"/>
<stop offset="0.3288" stop-color="#418B3D"/>
<stop offset="0.6352" stop-color="#419637"/>
<stop offset="0.9319" stop-color="#3FA92D"/>
<stop offset="1" stop-color="#3FAE2A"/>
</linearGradient>
</defs>
</svg>
