<svg width="176" height="174" viewBox="0 0 176 174" fill="none" xmlns="http://www.w3.org/2000/svg">
<path d="M87.2812 0.124804C42.9063 0.124804 45.7125 19.3123 45.7125 19.3123V39.2498H87.9125V45.4998H28.9062C28.9062 45.4998 0.5 41.9998 0.5 87.0311C0.5 132.062 25.5812 130.231 25.5812 130.231H40.0625V109.225C40.0625 109.225 39.25 84.1436 64.4375 84.1436H106.7C106.7 84.1436 130.275 84.5186 130.275 61.3186V23.2498C130.275 23.2498 133.85 0.0498047 87.5125 0.0498047L87.2812 0.124804ZM63.9562 13.4811C65.4565 13.4432 66.9343 13.8511 68.2027 14.6531C69.4711 15.4552 70.4732 16.6154 71.0822 17.987C71.6913 19.3586 71.8799 20.88 71.6242 22.3588C71.3685 23.8376 70.6801 25.2073 69.6459 26.2948C68.6117 27.3823 67.2783 28.1387 65.8142 28.4683C64.3501 28.798 62.8212 28.686 61.4207 28.1467C60.0203 27.6073 58.8112 26.6648 57.9464 25.4383C57.0817 24.2117 56.6001 22.7563 56.5625 21.2561V21.1311C56.5625 20.1347 56.7588 19.148 57.1401 18.2274C57.5214 17.3069 58.0803 16.4704 58.7848 15.7659C59.4894 15.0613 60.3258 14.5024 61.2464 14.1211C62.1669 13.7398 63.1536 13.5436 64.15 13.5436L63.9562 13.4811Z" fill="url(#paint0_linear_59_6)"/>
<path d="M88.5312 173.938C132.906 173.938 130.1 154.688 130.1 154.688V134.813H87.9062V128.563H147.094C147.094 128.563 175.5 131.738 175.5 86.9689C175.5 42.2002 150.419 43.7689 150.419 43.7689H135.75V64.5002C135.75 64.5002 136.562 89.5814 111.375 89.5814H69.0937C69.0937 89.5814 45.5 89.2252 45.5 112.425V150.75C45.5 150.75 41.925 173.95 88.2625 173.95H88.5125L88.5312 173.938ZM111.856 160.519C110.356 160.557 108.878 160.149 107.61 159.347C106.341 158.545 105.339 157.385 104.73 156.013C104.121 154.641 103.933 153.12 104.188 151.641C104.444 150.162 105.132 148.793 106.167 147.705C107.201 146.618 108.534 145.861 109.998 145.532C111.462 145.202 112.991 145.314 114.392 145.853C115.792 146.393 117.001 147.335 117.866 148.562C118.731 149.788 119.212 151.244 119.25 152.744V152.931C119.25 154.944 118.451 156.874 117.028 158.297C115.605 159.72 113.675 160.519 111.662 160.519H111.856Z" fill="url(#paint1_linear_59_6)"/>
<defs>
<linearGradient id="paint0_linear_59_6" x1="17.7947" y1="17.1429" x2="100.836" y2="99.9965" gradientUnits="userSpaceOnUse">
<stop stop-color="#387EB8"/>
<stop offset="1" stop-color="#366994"/>
</linearGradient>
<linearGradient id="paint1_linear_59_6" x1="66.9219" y1="71.1162" x2="161.798" y2="153.945" gradientUnits="userSpaceOnUse">
<stop stop-color="#FFE052"/>
<stop offset="1" stop-color="#FFC331"/>
</linearGradient>
</defs>
</svg>
