<svg width="250" height="250" viewBox="0 0 250 250" fill="none" xmlns="http://www.w3.org/2000/svg">
<path d="M125.004 142.316C134.665 142.316 142.496 134.485 142.496 124.824C142.496 115.164 134.665 107.332 125.004 107.332C115.343 107.332 107.512 115.164 107.512 124.824C107.512 134.485 115.343 142.316 125.004 142.316Z" fill="#00D8FF"/>
<path fill-rule="evenodd" clip-rule="evenodd" d="M126.289 87.9531C156.113 88.1562 188.652 90.332 210.988 110.25C211.645 110.836 212.277 111.445 212.895 112.074C218.164 117.445 220.918 126.117 216.664 133.254C207.938 147.906 188.422 154.297 169.527 158.23C141.27 164.113 111.723 164.16 83.4766 158.98C67.2227 155.996 50.6016 150.766 39.0508 139.824C34.5547 135.566 30.711 129.965 31.3125 123.73C32.2891 113.644 41.9649 107.172 50.1094 102.789C72.7305 90.6171 100.293 87.8945 126.289 87.9531ZM124.125 92.5351C95.9063 92.7265 65.3633 94.5273 43.5742 112.57C42.8125 113.199 42.0782 113.859 41.3711 114.551C40.9141 114.996 40.4727 115.461 40.0469 115.937C36.2227 120.234 34.9063 127.137 38.5157 132.297C42.1485 137.488 47.6641 141.234 53.3438 144.289C74.586 155.711 99.6875 157.738 124.16 157.824C148.938 157.914 174.488 155.656 196.375 144.34C205.094 139.828 214.906 133.203 214.559 124.672C214.238 116.844 206.605 112.008 200.891 108.555C199.344 107.621 197.754 106.758 196.141 105.945C174.414 95.0585 148.953 92.4804 124.125 92.5351Z" fill="#00D8FF"/>
<path fill-rule="evenodd" clip-rule="evenodd" d="M164.512 41.8085C175.422 42.0859 181.074 55.203 181.82 64.8905C181.969 66.8163 182.023 68.7499 182 70.6835C181.977 72.7773 181.863 74.871 181.68 76.9569C179.379 102.785 167.586 127.383 153.699 150.098C140.117 172.316 123.555 194.473 101.023 204.769C93.5742 208.176 84.7149 210.277 78.1211 206.476C69.0821 201.269 68.0938 189.09 68.2618 179.851C68.3047 177.582 68.4532 175.312 68.6875 173.051C72.1602 139.613 89.1094 107.937 110.32 80.6483C122.695 64.7265 137.418 48.9335 155.758 43.2148C158.645 42.3124 160.938 41.7655 164.512 41.8085ZM163.988 46.3866C151.18 46.5898 139.68 56.0819 129.496 65.9452C102.723 91.871 82.9922 126.351 75.0547 162.512C74.4414 165.312 73.9258 168.133 73.5469 170.973C73.2539 173.172 73.0391 175.383 72.9258 177.601C72.836 179.367 72.8047 181.137 72.8594 182.906C72.8985 184.289 72.9883 185.672 73.1407 187.047C73.2539 188.098 73.4063 189.144 73.5977 190.184C73.7422 190.953 73.9102 191.719 74.1055 192.48C74.2657 193.098 74.4453 193.711 74.6485 194.32C76.2461 199.137 80.3633 203.738 85.8907 203.891C98.7852 204.242 110.926 194.84 121.422 184.621C139.848 166.687 153.578 144.152 164.305 120.465C172.961 101.34 180.879 80.5507 176.457 59.4999C176.289 58.703 176.094 57.914 175.871 57.1327C175.688 56.496 175.48 55.8671 175.254 55.246C173.535 50.5624 169.492 46.3749 163.988 46.3866Z" fill="#00D8FF"/>
<path fill-rule="evenodd" clip-rule="evenodd" d="M86.3633 41.9803C100.285 42.2499 112.789 51.6991 123.891 62.2811C144.148 81.5897 159.09 106.152 170.426 132.004C179.207 152.031 187.285 174.512 180.105 195.644C177.844 202.305 172.121 208.398 164.492 208.555C150.504 208.836 137.539 198.664 126.289 187.715C98.0664 160.238 77.1133 123.965 69.9336 85.4959C69.418 82.7459 69.0078 79.9725 68.7266 77.1874C68.4961 74.9139 68.3516 72.6288 68.3125 70.3436C68.2813 68.4999 68.3203 66.6561 68.4492 64.8202C68.5352 63.5936 68.6602 62.3749 68.8281 61.16C68.9883 60.0194 69.1914 58.8827 69.4453 57.7577C69.6133 57.0116 69.8008 56.2733 70.0156 55.5389C72.1211 48.3397 77.5977 41.9256 86.3633 41.9803ZM85.836 46.5624C77.6836 46.742 73.9531 56.3553 73.2031 63.1014C73.0508 64.4842 72.957 65.8788 72.9141 67.2733C72.8594 69.0545 72.8828 70.8397 72.9727 72.621C74.2539 98.3983 85.7774 123.32 99.6836 146.14C112.777 167.625 128.59 189.023 150.34 200.023C156.621 203.199 164.254 205.695 169.68 202.695C176.484 198.93 177.32 189.957 177.684 183.269C177.781 181.449 177.793 179.621 177.734 177.797C177.664 175.508 177.484 173.223 177.215 170.949C174.707 149.711 165.301 129.613 154.496 110.621C141.051 86.996 124.578 63.4491 101.266 51.1483C96.4375 48.6014 91.211 46.5194 85.836 46.5624Z" fill="#00D8FF"/>
</svg>
