<svg width="191" height="200" viewBox="0 0 191 200" fill="none" xmlns="http://www.w3.org/2000/svg">
<path d="M83.8369 199.647C74.6297 197.816 66.6806 191.519 62.816 182.996C61.116 179.246 60.3926 175.704 60.4052 171.187C60.4394 158.205 68.6029 147.364 81.2849 143.456C83.6212 142.736 85.1629 142.546 88.7449 142.537C91.2283 142.531 93.9669 142.661 94.8309 142.829L96.4015 143.133L98.3343 139.38C102.281 131.716 108.433 125.695 116.385 121.712C122.945 118.426 127.068 117.47 134.683 117.47C140.017 117.47 141.254 117.599 144.695 118.511C159.556 122.448 171.138 134.111 174.784 148.807C175.697 152.486 176.152 160.737 175.621 163.974L175.258 166.184L177.339 166.65C182.555 167.817 187.057 171.461 189.358 176.379C191.634 181.243 191.218 187.536 188.315 192.134C186.834 194.48 183.929 197.089 181.506 198.249C180.264 198.844 178.941 199.491 178.565 199.688C177.723 200.13 86.0652 200.09 83.8369 199.647ZM179.125 194.222C181.704 192.94 184.255 190.073 185.315 187.265C187.514 181.44 184.58 174.671 178.727 172.067C177.249 171.409 176.145 171.257 173.063 171.286C170.958 171.306 169.235 171.173 169.235 170.991C169.235 170.809 169.626 169.1 170.104 167.193C171.327 162.316 171.315 154.538 170.076 149.788C167.345 139.314 160.267 130.578 150.584 125.733C146.329 123.604 142.282 122.631 136.753 122.405C128.57 122.071 122.857 123.361 116.562 126.962C109.221 131.162 102.894 138.773 100.441 146.353C99.9692 147.81 99.3972 149.001 99.1697 148.998C98.9412 148.995 97.6077 148.615 96.204 148.153C92.2989 146.867 85.6389 146.946 81.7414 148.323C77.8183 149.709 74.994 151.485 72.0534 154.417C67.6457 158.811 65.1974 164.799 65.1974 171.187C65.1974 180.673 70.4226 188.989 78.9234 193.032C83.8092 195.356 82.1186 195.286 131.737 195.209L177.283 195.138L179.125 194.222ZM47.7146 175.863C31.2371 173.63 18.5543 169.492 9.17284 163.29C5.30199 160.73 2.62943 157.868 1.12257 154.667L0 152.282L0.102844 87.7229L0.20571 23.1634L1.14315 21.4044C3.51286 16.9582 8.13313 13.1642 15.4891 9.62471C24.7903 5.14911 35.5163 2.35109 50.4629 0.50109C56.618 -0.260738 77.52 -0.126033 83.8369 0.716196C107.098 3.81751 125.149 11.4177 130.904 20.5327C133.171 24.1247 133.113 22.8227 133.113 69.7553V112.845L131.837 113.043C131.135 113.151 129.545 113.349 128.303 113.481C115.494 114.849 102.209 123.705 95.4 135.415L94.0057 137.813L88.5289 138.072C82.0574 138.377 78.76 139.206 73.84 141.764C65.3923 146.156 59.3546 153.771 56.8926 163.138C56.2126 165.725 56.0114 167.6 55.9977 171.481L55.9691 176.487L53.7994 176.441C52.6063 176.415 49.8631 176.155 47.7037 175.863H47.7146ZM81.2114 116.357C78.1206 113.734 75.4474 111.46 75.2711 111.305C75.094 111.15 75.7372 110.562 76.698 109.998C78.8289 108.75 81.5726 105.761 82.7377 103.419C85.5849 97.6966 85.5215 90.579 82.572 84.9153C79.3292 78.6861 72.5426 75.4184 64.8537 76.3838C60.6437 76.9125 58.0063 78.0934 55.2249 80.6953C50.8346 84.8021 49.314 88.8317 49.5449 95.7478C49.6763 99.6798 49.8163 100.387 50.9409 102.773C53.3612 107.91 58.4214 111.75 63.5766 112.36C65.516 112.59 65.6843 112.717 69.538 116.861L73.504 121.126H80.1672H86.8306L81.2114 116.357ZM64.3971 102.966C61.6969 101.596 60.6714 99.2492 60.6714 94.4371C60.6714 91.306 60.8229 90.3918 61.5926 88.826C62.8237 86.326 65.2783 84.8231 67.6863 85.0945C70.0549 85.3614 71.286 86.3195 72.5389 88.8702C73.4894 90.8062 73.6269 91.5399 73.6157 94.623C73.6157 98.4261 72.9292 100.376 71.0163 102.155C69.018 104.014 66.9591 104.266 64.3971 102.966ZM37.2277 112.08C44.3277 110.442 48.1843 104.496 46.1397 98.3403C45.1103 95.2406 42.9343 93.3045 37.62 90.7595C35.1657 89.5842 32.9709 88.3824 32.7426 88.089C31.8489 86.9409 31.8509 86.1809 32.7426 85.1361C34.1254 83.5284 37.2734 83.4516 41.5357 84.9213L44.7872 86.0426L44.6757 81.7032L44.5643 77.3638L42.4049 76.8506C39.1391 76.0743 32.0803 76.1123 29.3031 76.9211C23.7346 78.543 20.8003 82.1826 20.8186 87.4446C20.8471 92.86 23.2771 95.4271 31.8689 99.0727C35.5037 100.615 35.92 103.497 32.6709 104.626C31.1671 105.148 30.7391 105.138 28.3597 104.524C26.9066 104.148 24.702 103.315 23.4603 102.671L21.2026 101.5V106.198V110.895L23.4603 111.524C24.702 111.87 25.8946 112.214 26.1106 112.289C27.008 112.602 35.6634 112.439 37.2189 112.08H37.2277ZM113.088 107.973V103.85H106.806H100.524V90.304V76.7581H95.4197H90.3154V94.4266V112.095H101.702H113.088V107.973ZM82.8554 37.2825C93.094 36.0959 101.496 33.9497 106.806 31.1645C110.295 29.3346 111.131 28.6755 112.473 26.6992C116.62 20.588 107.333 14.4433 89.3337 11.3885C72.4232 8.51846 50.1377 9.16764 35.8743 12.9458C6.44429 20.7415 18.046 35.0618 56.0791 37.885C62.3211 38.3483 76.3906 38.0319 82.8554 37.2825Z" fill="white"/>
</svg>
